<?xml version="1.0" encoding="UTF-8"?>
<svg version="1.1" xmlns="http://www.w3.org/2000/svg" width="684" height="286">
<path d="M0 0 C1.4606285 2.64738916 2 3.89448334 2 7 C3.32 7 4.64 7 6 7 C6.48082031 6.49855469 6.96164062 5.99710937 7.45703125 5.48046875 C9 4 9 4 11.26171875 3.92578125 C12.46248047 4.11720703 12.46248047 4.11720703 13.6875 4.3125 C14.49574219 4.43238281 15.30398438 4.55226563 16.13671875 4.67578125 C16.75160156 4.78277344 17.36648438 4.88976562 18 5 C18 5.66 18 6.32 18 7 C20.97 7 23.94 7 27 7 C27.33 8.32 27.66 9.64 28 11 C28.66 11 29.32 11 30 11 C30.33 12.98 30.66 14.96 31 17 C32.32 17.33 33.64 17.66 35 18 C35 18.99 35 19.98 35 21 C35.66 21 36.32 21 37 21 C37 23.64 37 26.28 37 29 C36.34 29 35.68 29 35 29 C34.74930087 31.37429296 34.74930087 31.37429296 35 34 C35.7425 34.7115625 35.7425 34.7115625 36.5 35.4375 C38 37 38 37 38.25 40.0625 C38 43 38 43 37 45 C33.54670274 46.72664863 30.84169158 47.21952523 27 47 C27.33 48.65 27.66 50.3 28 52 C27.01 52.33 26.02 52.66 25 53 C25 54.32 25 55.64 25 57 C25.85722656 56.97679687 26.71445312 56.95359375 27.59765625 56.9296875 C33.80373869 56.83173355 39.1571222 56.82590593 45 59 C45 59.66 45 60.32 45 61 C46.175625 61.0928125 46.175625 61.0928125 47.375 61.1875 C48.24125 61.455625 49.1075 61.72375 50 62 C51.3125 64.5625 51.3125 64.5625 52 67 C52.66 67 53.32 67 54 67 C54.33 68.32 54.66 69.64 55 71 C55.66 71 56.32 71 57 71 C57.33 73.64 57.66 76.28 58 79 C58.99 79 59.98 79 61 79 C61 79.66 61 80.32 61 81 C62.65 81 64.3 81 66 81 C66 80.34 66 79.68 66 79 C68.97 79 71.94 79 75 79 C75 79.66 75 80.32 75 81 C75.59167969 80.98839844 76.18335938 80.97679688 76.79296875 80.96484375 C81.00231785 80.91677614 84.8922333 80.93993117 89 82 C89 82.66 89 83.32 89 84 C89.58265625 84.02578125 90.1653125 84.0515625 90.765625 84.078125 C97.96234913 84.57601158 104.25433647 86.50804526 111 89 C111 89.66 111 90.32 111 91 C112.65 91.33 114.3 91.66 116 92 C116 92.66 116 93.32 116 94 C118.97 94.66 121.94 95.32 125 96 C125 96.66 125 97.32 125 98 C126.98 98.33 128.96 98.66 131 99 C131 99.66 131 100.32 131 101 C132.32 101.33 133.64 101.66 135 102 C135 102.66 135 103.32 135 104 C135.598125 104.144375 136.19625 104.28875 136.8125 104.4375 C138.56150404 104.8872439 140.28677023 105.42892341 142 106 C142 106.66 142 107.32 142 108 C143.32 108.33 144.64 108.66 146 109 C146 109.66 146 110.32 146 111 C147.65 111.33 149.3 111.66 151 112 C151 112.66 151 113.32 151 114 C151.598125 114.144375 152.19625 114.28875 152.8125 114.4375 C154.56150404 114.8872439 156.28677023 115.42892341 158 116 C158.33 116.66 158.66 117.32 159 118 C159.99 118.33 160.98 118.66 162 119 C162 119.66 162 120.32 162 121 C162.99 121.33 163.98 121.66 165 122 C165 122.66 165 123.32 165 124 C165.5775 124.0825 166.155 124.165 166.75 124.25 C169.6539336 125.21797787 171.03740604 126.68694284 173 129 C173 129.66 173 130.32 173 131 C173.99 131.33 174.98 131.66 176 132 C176 132.66 176 133.32 176 134 C177.175625 134.1546875 177.175625 134.1546875 178.375 134.3125 C181 135 181 135 183 138 C183 138.99 183 139.98 183 141 C183.61875 141.226875 184.2375 141.45375 184.875 141.6875 C187.6219805 143.38416443 187.86635273 145.05251711 189 148 C189.99 148.33 190.98 148.66 192 149 C192.6875 151.0625 192.6875 151.0625 193 153 C193.66 153 194.32 153 195 153 C199 157.35294118 199 157.35294118 199 161 C200.32 161.66 201.64 162.32 203 163 C203 163.66 203 164.32 203 165 C203.66 165 204.32 165 205 165 C205.33 165.99 205.66 166.98 206 168 C206.66 168.33 207.32 168.66 208 169 C209.2890625 170.9609375 209.2890625 170.9609375 210.625 173.375 C211.07101562 174.16648438 211.51703125 174.95796875 211.9765625 175.7734375 C213 178 213 178 213 181 C213.66 181 214.32 181 215 181 C215.33 182.32 215.66 183.64 216 185 C216.66 185 217.32 185 218 185 C218.33 187.31 218.66 189.62 219 192 C219.66 192 220.32 192 221 192 C222.31626692 195.61973402 223 198.09567131 223 202 C223.66 202 224.32 202 225 202 C225.33 203.98 225.66 205.96 226 208 C226.66 208 227.32 208 228 208 C228.66 211.3 229.32 214.6 230 218 C230.66 218 231.32 218 232 218 C232.33 220.31 232.66 222.62 233 225 C233.66 225 234.32 225 235 225 C235.33 227.64 235.66 230.28 236 233 C236.66 233 237.32 233 238 233 C238.66 238.28 239.32 243.56 240 249 C240.66 249 241.32 249 242 249 C243.23839599 255.65637843 243.09139136 262.2471936 243 269 C243.66 269 244.32 269 245 269 C245 274.61 245 280.22 245 286 C240.05 286 235.1 286 230 286 C230 284.02 230 282.04 230 280 C229.34 280 228.68 280 228 280 C227.67 276.04 227.34 272.08 227 268 C226.34 268 225.68 268 225 268 C224.67 266.35 224.34 264.7 224 263 C223.34 263 222.68 263 222 263 C221.566875 261.7934375 221.566875 261.7934375 221.125 260.5625 C220.26737432 257.8673532 220.26737432 257.8673532 218 257 C217.375 253.9375 217.375 253.9375 217 251 C216.34 251 215.68 251 215 251 C213.74335022 248.09399739 213 246.20395416 213 243 C212.34 243 211.68 243 211 243 C210.67 241.35 210.34 239.7 210 238 C209.34 238 208.68 238 208 238 C207.896875 237.360625 207.79375 236.72125 207.6875 236.0625 C207.460625 235.381875 207.23375 234.70125 207 234 C206.01 233.67 205.02 233.34 204 233 C203.67 231.35 203.34 229.7 203 228 C202.01 227.67 201.02 227.34 200 227 C200 226.01 200 225.02 200 224 C199.01 223.67 198.02 223.34 197 223 C197 222.34 197 221.68 197 221 C196.34 221 195.68 221 195 221 C194.773125 220.4225 194.54625 219.845 194.3125 219.25 C192.6591307 216.41565264 190.57036056 215.03237811 188 213 C187.08094124 211.95752477 186.18507453 210.89418263 185.3125 209.8125 C183.30609749 206.98352767 183.30609749 206.98352767 181 206 C181 205.34 181 204.68 181 204 C179.68 203.67 178.36 203.34 177 203 C177 202.34 177 201.68 177 201 C176.030625 200.71125 175.06125 200.4225 174.0625 200.125 C171 199 171 199 170 197 C169.01 196.67 168.02 196.34 167 196 C167 195.34 167 194.68 167 194 C165.68 193.67 164.36 193.34 163 193 C163 192.34 163 191.68 163 191 C161.02 190.34 159.04 189.68 157 189 C157 188.34 157 187.68 157 187 C155.68 186.67 154.36 186.34 153 186 C153 185.34 153 184.68 153 184 C151.35 183.67 149.7 183.34 148 183 C148 182.34 148 181.68 148 181 C146.35 180.34 144.7 179.68 143 179 C143 178.34 143 177.68 143 177 C142.21625 176.938125 141.4325 176.87625 140.625 176.8125 C139.75875 176.544375 138.8925 176.27625 138 176 C137.7525 175.195625 137.505 174.39125 137.25 173.5625 C136.28163301 170.82540991 136.28163301 170.82540991 133.8828125 170.2265625 C131.59313965 169.73438983 129.31969955 169.31979397 127 169 C127 168.34 127 167.68 127 167 C124.69 166.67 122.38 166.34 120 166 C120 165.34 120 164.68 120 164 C119.34 164.33 118.68 164.66 118 165 C118.33 165.99 118.66 166.98 119 168 C119.99 168.33 120.98 168.66 122 169 C122 169.66 122 170.32 122 171 C123.32 171.66 124.64 172.32 126 173 C126 173.66 126 174.32 126 175 C126.99 175.33 127.98 175.66 129 176 C129 176.66 129 177.32 129 178 C129.99 178.33 130.98 178.66 132 179 C132 179.66 132 180.32 132 181 C132.66 181 133.32 181 134 181 C134.04241723 183.33294775 134.04092937 185.66702567 134 188 C133 189 133 189 129.4375 189.0625 C128.303125 189.041875 127.16875 189.02125 126 189 C126 188.34 126 187.68 126 187 C124.02 186.67 122.04 186.34 120 186 C120 185.34 120 184.68 120 184 C118.02 183.67 116.04 183.34 114 183 C114 182.34 114 181.68 114 181 C110.7 180.34 107.4 179.68 104 179 C104 178.34 104 177.68 104 177 C101.36 176.67 98.72 176.34 96 176 C96 175.34 96 174.68 96 174 C93.69 173.67 91.38 173.34 89 173 C89 173.66 89 174.32 89 175 C89.99 175.33 90.98 175.66 92 176 C92 176.66 92 177.32 92 178 C93.65 178.33 95.3 178.66 97 179 C97 179.66 97 180.32 97 181 C97.886875 181.268125 98.77375 181.53625 99.6875 181.8125 C107.26436782 184.52873563 107.26436782 184.52873563 109 188 C109.99 188.33 110.98 188.66 112 189 C112 189.66 112 190.32 112 191 C113.32 191.66 114.64 192.32 116 193 C116 193.66 116 194.32 116 195 C116.66 195 117.32 195 118 195 C118.33 197.64 118.66 200.28 119 203 C118.01 203.33 117.02 203.66 116 204 C116 204.66 116 205.32 116 206 C114.35 206 112.7 206 111 206 C111 205.34 111 204.68 111 204 C108.69 203.67 106.38 203.34 104 203 C104 202.34 104 201.68 104 201 C98.06 200.67 92.12 200.34 86 200 C88.32251426 204.88495525 88.32251426 204.88495525 91 206 C91.474375 206.804375 91.94875 207.60875 92.4375 208.4375 C93.89664045 211.2355972 93.89664045 211.2355972 97 213 C97.6875 215.625 97.6875 215.625 98 218 C102.33273814 218.92844389 105.66726186 218.92844389 110 218 C110 217.34 110 216.68 110 216 C112.31 215.67 114.62 215.34 117 215 C117 214.34 117 213.68 117 213 C119.31 212.67 121.62 212.34 124 212 C124 211.34 124 210.68 124 210 C128.95 209.01 128.95 209.01 134 208 C134 207.34 134 206.68 134 206 C137.96 205.67 141.92 205.34 146 205 C146 204.34 146 203.68 146 203 C147.98 203 149.96 203 152 203 C152 203.66 152 204.32 152 205 C152.65226562 204.98839844 153.30453125 204.97679687 153.9765625 204.96484375 C166.63978625 204.8341025 166.63978625 204.8341025 169.75 207.5 C170.1625 207.995 170.575 208.49 171 209 C171.66 209.33 172.32 209.66 173 210 C173 210.66 173 211.32 173 212 C173.99 212.33 174.98 212.66 176 213 C176 213.66 176 214.32 176 215 C176.99 215.33 177.98 215.66 179 216 C179 216.66 179 217.32 179 218 C180.32 218.66 181.64 219.32 183 220 C183 220.99 183 221.98 183 223 C183.66 223 184.32 223 185 223 C185.33 224.65 185.66 226.3 186 228 C186.66 228 187.32 228 188 228 C188.33 230.31 188.66 232.62 189 235 C189.66 235 190.32 235 191 235 C192.33583899 239.84241633 193.25328119 243.93437617 193 249 C193.66 249 194.32 249 195 249 C196.24063784 256.65874066 196.11179358 264.25711646 196.0625 272 C196.05747487 273.36067544 196.05291376 274.72135267 196.04882812 276.08203125 C196.03710459 279.38806725 196.02069427 282.69401001 196 286 C192.37 286 188.74 286 185 286 C184.34 278.74 183.68 271.48 183 264 C181.68 264.33 180.36 264.66 179 265 C179 265.66 179 266.32 179 267 C177.35 267 175.7 267 174 267 C173.67 265.68 173.34 264.36 173 263 C172.34 263 171.68 263 171 263 C171 260.69 171 258.38 171 256 C171.66 256 172.32 256 173 256 C173.144375 255.05125 173.28875 254.1025 173.4375 253.125 C174 250 174 250 175 248 C175.66 248 176.32 248 177 248 C177 244.7 177 241.4 177 238 C176.01 237.67 175.02 237.34 174 237 C173.67 236.01 173.34 235.02 173 234 C171.78943438 232.2476809 171.78943438 232.2476809 170 231 C167.71669899 230.63853543 167.71669899 230.63853543 165.3125 230.8125 C164.50425781 230.83957031 163.69601562 230.86664063 162.86328125 230.89453125 C162.24839844 230.92933594 161.63351562 230.96414062 161 231 C161 231.66 161 232.32 161 233 C158.4849415 236.55067083 155.11875525 237.18975307 151 238 C147.07598485 237.94333552 143.89106261 237.89106261 141 235 C140.73008094 232.31160615 140.91262643 229.70858064 141 227 C138.69 227.33 136.38 227.66 134 228 C134 228.66 134 229.32 134 230 C131.36 230.33 128.72 230.66 126 231 C126 231.66 126 232.32 126 233 C123.69 233.33 121.38 233.66 119 234 C118.67 234.99 118.34 235.98 118 237 C117.34 237 116.68 237 116 237 C115.93941406 237.68707031 115.87882812 238.37414062 115.81640625 239.08203125 C115.73261719 239.98308594 115.64882813 240.88414062 115.5625 241.8125 C115.48128906 242.70582031 115.40007812 243.59914062 115.31640625 244.51953125 C115 247 115 247 114 250 C113.34 250 112.68 250 112 250 C111.67 251.32 111.34 252.64 111 254 C110.34 254 109.68 254 109 254 C108.34 255.98 107.68 257.96 107 260 C105.35 260.33 103.7 260.66 102 261 C101.67 261.99 101.34 262.98 101 264 C98.21398777 264.92867074 96.38933911 265.16342217 93.5 265.1875 C92.7265625 265.20167969 91.953125 265.21585937 91.15625 265.23046875 C89 265 89 265 86 263 C86 262.01 86 261.02 86 260 C85.34 260 84.68 260 84 260 C84 259.34 84 258.68 84 258 C83.01 258 82.02 258 81 258 C81 256.68 81 255.36 81 254 C80.34 254 79.68 254 79 254 C78.67 254.99 78.34 255.98 78 257 C76.02 257.33 74.04 257.66 72 258 C72 258.66 72 259.32 72 260 C71.01 260.33 70.02 260.66 69 261 C68.67 261.66 68.34 262.32 68 263 C65.37418862 264.57548683 64.12900213 265 61 265 C61 265.66 61 266.32 61 267 C60.01 267.33 59.02 267.66 58 268 C57.67 268.66 57.34 269.32 57 270 C54.4375 270.625 54.4375 270.625 52 271 C52 271.66 52 272.32 52 273 C49.35261084 274.4606285 48.10551666 275 45 275 C45 275.66 45 276.32 45 277 C44.01 277.33 43.02 277.66 42 278 C41.67 278.66 41.34 279.32 41 280 C37.9375 280.625 37.9375 280.625 35 281 C35 282.65 35 284.3 35 286 C24.66666667 286 14.33333333 286 4 286 C4 285.01 4 284.02 4 283 C4.66 283 5.32 283 6 283 C6.79953138 279.71303767 7.09658936 278.28976808 6 275 C3.99983534 273.79117904 3.99983534 273.79117904 2 273 C2 272.34 2 271.68 2 271 C1.278125 270.95875 0.55625 270.9175 -0.1875 270.875 C-4.10660527 269.65572281 -5.49715654 267.16148648 -8 264 C-8.99 263.67 -9.98 263.34 -11 263 C-11 262.34 -11 261.68 -11 261 C-11.99 260.67 -12.98 260.34 -14 260 C-14 259.34 -14 258.68 -14 258 C-14.969375 257.71125 -15.93875 257.4225 -16.9375 257.125 C-20 256 -20 256 -21 254 C-21.99 253.67 -22.98 253.34 -24 253 C-24.33 252.34 -24.66 251.68 -25 251 C-25.99 250.67 -26.98 250.34 -28 250 C-28 249.34 -28 248.68 -28 248 C-30.31 247.34 -32.62 246.68 -35 246 C-35 245.34 -35 244.68 -35 244 C-36.2065625 243.814375 -36.2065625 243.814375 -37.4375 243.625 C-38.283125 243.41875 -39.12875 243.2125 -40 243 C-40.33 242.34 -40.66 241.68 -41 241 C-41.99 240.67 -42.98 240.34 -44 240 C-44.33 239.34 -44.66 238.68 -45 238 C-46.65051288 236.88365848 -46.65051288 236.88365848 -48.5625 235.875 C-50.2640625 234.946875 -50.2640625 234.946875 -52 234 C-52.33 234.99 -52.66 235.98 -53 237 C-54.9375 239.1875 -54.9375 239.1875 -57 241 C-57.66 241 -58.32 241 -59 241 C-59.33 241.99 -59.66 242.98 -60 244 C-60.66 244 -61.32 244 -62 244 C-62 244.66 -62 245.32 -62 246 C-62.9590625 246.433125 -62.9590625 246.433125 -63.9375 246.875 C-66.15206079 247.82823451 -66.15206079 247.82823451 -67 250 C-70.0625 250.625 -70.0625 250.625 -73 251 C-73 251.66 -73 252.32 -73 253 C-75.97 253.33 -78.94 253.66 -82 254 C-82 254.66 -82 255.32 -82 256 C-85.55780196 255.39009109 -88.6828589 254.4216319 -92 253 C-92 252.01 -92 251.02 -92 250 C-92.66 250 -93.32 250 -94 250 C-95.06375135 246.80874596 -95.13335484 244.47529029 -95.125 241.125 C-95.12757813 240.09632813 -95.13015625 239.06765625 -95.1328125 238.0078125 C-95.00995061 235.225352 -94.62944236 232.70760126 -94 230 C-93.34 230 -92.68 230 -92 230 C-91.731875 229.13375 -91.46375 228.2675 -91.1875 227.375 C-90.02888013 224.08208036 -88.61790161 221.08872125 -87 218 C-91.29 217.67 -95.58 217.34 -100 217 C-100 217.99 -100 218.98 -100 220 C-100.66 220 -101.32 220 -102 220 C-102.33 222.31 -102.66 224.62 -103 227 C-103.99 227.33 -104.98 227.66 -106 228 C-106 228.66 -106 229.32 -106 230 C-108.76047543 230.92015848 -110.63362269 231.19267245 -113.5 231.25 C-114.66015625 231.28867187 -114.66015625 231.28867187 -115.84375 231.328125 C-118 231 -118 231 -119.73828125 229.71484375 C-121.70310148 227.04439148 -121.69501338 224.23285817 -122 221 C-123.32 221 -124.64 221 -126 221 C-126.33 221.99 -126.66 222.98 -127 224 C-127.66 224 -128.32 224 -129 224 C-129.99 226.97 -129.99 226.97 -131 230 C-131.66 230 -132.32 230 -133 230 C-133.33 232.31 -133.66 234.62 -134 237 C-132.35 237.66 -130.7 238.32 -129 239 C-129.42874769 251.04780999 -129.42874769 251.04780999 -134 256 C-136.6875 257.1875 -136.6875 257.1875 -139 258 C-139.33 258.99 -139.66 259.98 -140 261 C-140.99 261 -141.98 261 -143 261 C-143.33 264.3 -143.66 267.6 -144 271 C-144.66 271 -145.32 271 -146 271 C-146 275.95 -146 280.9 -146 286 C-151.28 286 -156.56 286 -162 286 C-161.67 277.42 -161.34 268.84 -161 260 C-160.34 260 -159.68 260 -159 260 C-159.020625 258.906875 -159.04125 257.81375 -159.0625 256.6875 C-159 253 -159 253 -158 250 C-158.99 250 -159.98 250 -161 250 C-161 248.68 -161 247.36 -161 246 C-160 245 -159 244 -158 243 C-156.30081651 239.4055734 -154.78185688 235.90928442 -154 232 C-153.34 232 -152.68 232 -152 232 C-151.67 229.69 -151.34 227.38 -151 225 C-150.34 225 -149.68 225 -149 225 C-148.855625 224.21625 -148.71125 223.4325 -148.5625 222.625 C-148 220 -148 220 -147 218 C-146.34 218 -145.68 218 -145 218 C-144.95875 217.278125 -144.9175 216.55625 -144.875 215.8125 C-143.61719712 211.76956216 -141.32953708 210.56651817 -138 208 C-137.67 207.34 -137.34 206.68 -137 206 C-134.93359375 205.5859375 -134.93359375 205.5859375 -132.4375 205.375 C-131.19806641 205.26285156 -131.19806641 205.26285156 -129.93359375 205.1484375 C-129.29550781 205.09945312 -128.65742188 205.05046875 -128 205 C-128 204.34 -128 203.68 -128 203 C-124.7 202.67 -121.4 202.34 -118 202 C-118 201.34 -118 200.68 -118 200 C-109.75 200 -101.5 200 -93 200 C-93 200.66 -93 201.32 -93 202 C-91.576875 201.9690625 -91.576875 201.9690625 -90.125 201.9375 C-87 202 -87 202 -85 203 C-84.505 199.04 -84.505 199.04 -84 195 C-83.34 195 -82.68 195 -82 195 C-81.34 193.68 -80.68 192.36 -80 191 C-79.34 191 -78.68 191 -78 191 C-77.67 190.01 -77.34 189.02 -77 188 C-76.34 188 -75.68 188 -75 188 C-75 187.34 -75 186.68 -75 186 C-74.01 185.67 -73.02 185.34 -72 185 C-70.73451047 183.53981978 -69.472692 182.07524 -68.265625 180.56640625 C-66.63794675 178.55190324 -64.92835875 176.72887336 -63 175 C-62.34 175 -61.68 175 -61 175 C-61 174.34 -61 173.68 -61 173 C-62.98 173.33 -64.96 173.66 -67 174 C-67 174.66 -67 175.32 -67 176 C-68.96726736 176.73355732 -70.93459541 177.46695261 -72.90234375 178.19921875 C-74.53401298 178.82210924 -76.14658444 179.49511601 -77.75 180.1875 C-80 181 -80 181 -84 181 C-84 181.66 -84 182.32 -84 183 C-85.98 183.33 -87.96 183.66 -90 184 C-90 184.66 -90 185.32 -90 186 C-91.98 186.33 -93.96 186.66 -96 187 C-96 187.66 -96 188.32 -96 189 C-97.43333021 189.39063507 -98.87192679 189.76198474 -100.3125 190.125 C-101.51326172 190.43824219 -101.51326172 190.43824219 -102.73828125 190.7578125 C-105 191 -105 191 -108 189 C-107.63148148 182.61234568 -107.63148148 182.61234568 -104.9375 180 C-103.4834375 179.01 -103.4834375 179.01 -102 178 C-99.90279477 176.15188812 -97.83679185 174.27210883 -95.76953125 172.390625 C-94 171 -94 171 -92 171 C-91.773125 170.443125 -91.54625 169.88625 -91.3125 169.3125 C-89.63848923 166.36305245 -87.45043651 164.3247731 -85 162 C-84.67 161.67 -84.34 161.34 -84 161 C-87.3 161 -90.6 161 -94 161 C-94 161.66 -94 162.32 -94 163 C-96.97 163.33 -99.94 163.66 -103 164 C-103 164.66 -103 165.32 -103 166 C-106.67410785 167.17571451 -110.16929183 167.07366746 -114 167 C-114 167.66 -114 168.32 -114 169 C-117 171 -117 171 -121 171 C-121 171.66 -121 172.32 -121 173 C-122.65 173.33 -124.3 173.66 -126 174 C-126 174.66 -126 175.32 -126 176 C-129.33333333 177.66666667 -132.66666667 179.33333333 -136 181 C-136 181.66 -136 182.32 -136 183 C-137.65 183.33 -139.3 183.66 -141 184 C-141 184.99 -141 185.98 -141 187 C-141.66 187 -142.32 187 -143 187 C-143 187.66 -143 188.32 -143 189 C-145.64738916 190.4606285 -146.89448334 191 -150 191 C-150 191.66 -150 192.32 -150 193 C-150.99 193 -151.98 193 -153 193 C-153.33 194.32 -153.66 195.64 -154 197 C-154.66 197 -155.32 197 -156 197 C-156 197.66 -156 198.32 -156 199 C-156.99 199 -157.98 199 -159 199 C-159.33 200.32 -159.66 201.64 -160 203 C-161.32 203 -162.64 203 -164 203 C-164 204.32 -164 205.64 -164 207 C-165.65 207 -167.3 207 -169 207 C-169.05607422 207.93972656 -169.05607422 207.93972656 -169.11328125 208.8984375 C-169.17902344 209.71570313 -169.24476563 210.53296875 -169.3125 211.375 C-169.39951172 212.59316406 -169.39951172 212.59316406 -169.48828125 213.8359375 C-170 216 -170 216 -173 218 C-173.33 218.99 -173.66 219.98 -174 221 C-174.66 221 -175.32 221 -176 221 C-176.309375 221.639375 -176.61875 222.27875 -176.9375 222.9375 C-178 225 -178 225 -179 226 C-179.36760731 228.32817964 -179.70241581 230.6618385 -180 233 C-180.99 233.33 -181.98 233.66 -183 234 C-183.03738281 234.61488281 -183.07476562 235.22976562 -183.11328125 235.86328125 C-183.17902344 236.67152344 -183.24476563 237.47976562 -183.3125 238.3125 C-183.37050781 239.11300781 -183.42851562 239.91351563 -183.48828125 240.73828125 C-184.08973329 243.39660743 -184.98591226 244.23443722 -187 246 C-187.33 246.66 -187.66 247.32 -188 248 C-188.66 248 -189.32 248 -190 248 C-190.33 252.29 -190.66 256.58 -191 261 C-191.66 261 -192.32 261 -193 261 C-192.505 262.98 -192.505 262.98 -192 265 C-190.68 265 -189.36 265 -188 265 C-188 266.65 -188 268.3 -188 270 C-188.99 270 -189.98 270 -191 270 C-191 272.31 -191 274.62 -191 277 C-191.66 277 -192.32 277 -193 277 C-193 278.98 -193 280.96 -193 283 C-192.34 283 -191.68 283 -191 283 C-190.67 283.99 -190.34 284.98 -190 286 C-196.93 286 -203.86 286 -211 286 C-211 279.4 -211 272.8 -211 266 C-210.34 266 -209.68 266 -209 266 C-209.01160156 265.32453125 -209.02320313 264.6490625 -209.03515625 263.953125 C-209.04417969 263.06109375 -209.05320312 262.1690625 -209.0625 261.25 C-209.07410156 260.36828125 -209.08570313 259.4865625 -209.09765625 258.578125 C-209.00826198 256.2181162 -208.66912821 254.25501476 -208 252 C-207.34 252 -206.68 252 -206 252 C-205.97421875 251.443125 -205.9484375 250.88625 -205.921875 250.3125 C-205.47626831 244.31706452 -203.94927498 240.23258464 -201 235 C-200.34 235 -199.68 235 -199 235 C-198.67 232.69 -198.34 230.38 -198 228 C-197.34 228 -196.68 228 -196 228 C-196 227.01 -196 226.02 -196 225 C-195.34 225 -194.68 225 -194 225 C-193.814375 223.88625 -193.814375 223.88625 -193.625 222.75 C-193.04513299 220.19858515 -192.26291261 218.2732427 -191 216 C-190.34 216 -189.68 216 -189 216 C-188.505 213.03 -188.505 213.03 -188 210 C-187.34 210 -186.68 210 -186 210 C-185.34 207.69 -184.68 205.38 -184 203 C-183.34 203 -182.68 203 -182 203 C-181.67 201.35 -181.34 199.7 -181 198 C-180.34 198 -179.68 198 -179 198 C-178.855625 197.21625 -178.71125 196.4325 -178.5625 195.625 C-178 193 -178 193 -177 191 C-176.34 191 -175.68 191 -175 191 C-174.505 188.03 -174.505 188.03 -174 185 C-173.34 185 -172.68 185 -172 185 C-171.67 184.01 -171.34 183.02 -171 182 C-170.34 182 -169.68 182 -169 182 C-168.9175 181.443125 -168.835 180.88625 -168.75 180.3125 C-167.76104459 177.26322081 -166.15242534 175.34810037 -164 173 C-163.34 173 -162.68 173 -162 173 C-161.67 171.68 -161.34 170.36 -161 169 C-160.34 169 -159.68 169 -159 169 C-158.9175 168.46375 -158.835 167.9275 -158.75 167.375 C-156.98477347 161.785116 -153.49016581 158.50451966 -149 155 C-148.08254848 153.9349126 -147.18689534 152.85070943 -146.3125 151.75 C-145.1678125 150.38875 -145.1678125 150.38875 -144 149 C-143.34 149 -142.68 149 -142 149 C-141.67 147.68 -141.34 146.36 -141 145 C-140.34 145 -139.68 145 -139 145 C-138.34 143.68 -137.68 142.36 -137 141 C-136.34 141 -135.68 141 -135 141 C-134.67 140.01 -134.34 139.02 -134 138 C-133.34 138 -132.68 138 -132 138 C-131.67 137.01 -131.34 136.02 -131 135 C-129.0625 132.8125 -129.0625 132.8125 -127 131 C-126.34 131 -125.68 131 -125 131 C-124.67 130.01 -124.34 129.02 -124 128 C-123.34 128 -122.68 128 -122 128 C-121.01 126.02 -121.01 126.02 -120 124 C-119.01 124 -118.02 124 -117 124 C-117 123.34 -117 122.68 -117 122 C-114.27321731 118.70147255 -110.69552288 117.12340266 -106.9609375 115.18359375 C-104.8516573 114.14885862 -104.8516573 114.14885862 -104 112 C-102.44140625 110.9296875 -102.44140625 110.9296875 -100.5625 109.875 C-99.94503906 109.52179688 -99.32757813 109.16859375 -98.69140625 108.8046875 C-97 108 -97 108 -95 108 C-95 107.34 -95 106.68 -95 106 C-92.35261084 104.5393715 -91.10551666 104 -88 104 C-87.505 102.515 -87.505 102.515 -87 101 C-86.01 101 -85.02 101 -84 101 C-84 100.34 -84 99.68 -84 99 C-82.56705502 98.15885829 -81.12845595 97.32734313 -79.6875 96.5 C-78.48673828 95.80390625 -78.48673828 95.80390625 -77.26171875 95.09375 C-75 94 -75 94 -72 94 C-72 93.34 -72 92.68 -72 92 C-69.525 91.505 -69.525 91.505 -67 91 C-67 90.34 -67 89.68 -67 89 C-64.03 88.505 -64.03 88.505 -61 88 C-61 87.34 -61 86.68 -61 86 C-58.36 85.34 -55.72 84.68 -53 84 C-53 83.34 -53 82.68 -53 82 C-48.545 81.505 -48.545 81.505 -44 81 C-44 80.34 -44 79.68 -44 79 C-43.37351562 78.96261719 -42.74703125 78.92523438 -42.1015625 78.88671875 C-41.28429687 78.82097656 -40.46703125 78.75523438 -39.625 78.6875 C-38.81289063 78.62949219 -38.00078125 78.57148437 -37.1640625 78.51171875 C-34.62078662 78.17009472 -34.62078662 78.17009472 -33 75 C-32.34 75 -31.68 75 -31 75 C-30.67 73.68 -30.34 72.36 -30 71 C-29.34 71 -28.68 71 -28 71 C-27.67 69.02 -27.34 67.04 -27 65 C-23.535 64.505 -23.535 64.505 -20 64 C-20 63.34 -20 62.68 -20 62 C-17.03 61.505 -17.03 61.505 -14 61 C-14 60.34 -14 59.68 -14 59 C-11.36 58.34 -8.72 57.68 -6 57 C-8.18789679 57 -10.37594878 57.0482789 -12.5625 57.125 C-16 57 -16 57 -18 55 C-18.125 51.875 -18.125 51.875 -18 49 C-18.66 49 -19.32 49 -20 49 C-20 48.34 -20 47.68 -20 47 C-20.78375 46.855625 -21.5675 46.71125 -22.375 46.5625 C-25 46 -25 46 -27 45 C-27 42.36 -27 39.72 -27 37 C-26.34 37 -25.68 37 -25 37 C-25.04125 35.7625 -25.0825 34.525 -25.125 33.25 C-25.125 29.99716438 -24.95704844 27.71812283 -23 25 C-22.01 24.505 -22.01 24.505 -21 24 C-20.34786708 21.97536745 -20.34786708 21.97536745 -20 20 C-19.34 20 -18.68 20 -18 20 C-17.67 18.35 -17.34 16.7 -17 15 C-15.02 14.67 -13.04 14.34 -11 14 C-11.0309375 12.329375 -11.0309375 12.329375 -11.0625 10.625 C-11 7 -11 7 -10 5 C-9.34 5 -8.68 5 -8 5 C-7.8453125 4.0409375 -7.8453125 4.0409375 -7.6875 3.0625 C-7.3471875 2.0415625 -7.3471875 2.0415625 -7 1 C-4 0 -4 0 0 0 Z M-37 87 C-37 87.66 -37 88.32 -37 89 C-36.34 89 -35.68 89 -35 89 C-35 88.34 -35 87.68 -35 87 C-35.66 87 -36.32 87 -37 87 Z M77 93 C77 99.6 77 106.2 77 113 C76.01 113.33 75.02 113.66 74 114 C74 114.33 74 114.66 74 115 C75.22630127 114.99476318 76.45260254 114.98952637 77.71606445 114.98413086 C82.2614672 114.96604439 86.80686676 114.9545546 91.35229492 114.94506836 C93.32039932 114.9400365 95.28849997 114.93321042 97.2565918 114.92456055 C100.08383101 114.91244483 102.91102084 114.90676024 105.73828125 114.90234375 C106.61962234 114.89718246 107.50096344 114.89202118 108.40901184 114.88670349 C109.22963608 114.88662796 110.05026031 114.88655243 110.89575195 114.88647461 C111.97830009 114.88314369 111.97830009 114.88314369 113.0827179 114.87974548 C115 115 115 115 118 116 C118.495 118.475 118.495 118.475 119 121 C121.97 121.33 124.94 121.66 128 122 C128.495 123.485 128.495 123.485 129 125 C129.66 125 130.32 125 131 125 C131.33 133.58 131.66 142.16 132 151 C135.7018576 153.2236068 135.7018576 153.2236068 139 153 C139 153.66 139 154.32 139 155 C141.31 155.33 143.62 155.66 146 156 C146 156.66 146 157.32 146 158 C147.65 158.33 149.3 158.66 151 159 C151.33 159.99 151.66 160.98 152 162 C153.485 162.495 153.485 162.495 155 163 C155.33 163.66 155.66 164.32 156 165 C159.02934491 165.65772428 159.02934491 165.65772428 162 166 C162 166.66 162 167.32 162 168 C163.98 168.495 163.98 168.495 166 169 C166 169.66 166 170.32 166 171 C166.804375 171.28875 167.60875 171.5775 168.4375 171.875 C171 173 171 173 172 175 C173.485 175.495 173.485 175.495 175 176 C175.474375 176.515625 175.94875 177.03125 176.4375 177.5625 C178.13676051 179.45137102 178.13676051 179.45137102 182 179 C182.33 179.99 182.66 180.98 183 182 C184.91626613 184.62225892 185.9322234 184.98538152 189.1875 185.6875 C190.115625 185.790625 191.04375 185.89375 192 186 C192.33 186.99 192.66 187.98 193 189 C193.66 189 194.32 189 195 189 C195.33 189.99 195.66 190.98 196 192 C196.99 192 197.98 192 199 192 C199 192.99 199 193.98 199 195 C200.98260426 196.68732277 202.9832342 198.35366057 205 200 C205.33 200.99 205.66 201.98 206 203 C206.66 203 207.32 203 208 203 C208 201.02 208 199.04 208 197 C207.01 196.67 206.02 196.34 205 196 C203.8125 192.9375 203.8125 192.9375 203 190 C202.34 190 201.68 190 201 190 C200.67 188.68 200.34 187.36 200 186 C199.34 186 198.68 186 198 186 C197.87625 185.195625 197.7525 184.39125 197.625 183.5625 C197.315625 182.2940625 197.315625 182.2940625 197 181 C196.34 180.67 195.68 180.34 195 180 C194.5359375 178.576875 194.5359375 178.576875 194.0625 177.125 C193.05364493 174.15777921 192.4612478 172.84593585 190 171 C189.34 171 188.68 171 188 171 C187.87625 170.360625 187.7525 169.72125 187.625 169.0625 C187.41875 168.381875 187.2125 167.70125 187 167 C186.34 166.67 185.68 166.34 185 166 C184.731875 165.195625 184.46375 164.39125 184.1875 163.5625 C183.24574508 160.75516627 183.24574508 160.75516627 180.4375 160 C179.633125 159.67 178.82875 159.34 178 159 C177.375 156.5625 177.375 156.5625 177 154 C175.72840348 152.14397385 175.72840348 152.14397385 174 151 C173.01 151 172.02 151 171 151 C170.505 149.02 170.505 149.02 170 147 C168.35 146.67 166.7 146.34 165 146 C165 145.01 165 144.02 165 143 C164.360625 142.896875 163.72125 142.79375 163.0625 142.6875 C162.381875 142.460625 161.70125 142.23375 161 142 C160.67 141.01 160.34 140.02 160 139 C159.01 139 158.02 139 157 139 C157 137.35 157 135.7 157 134 C156.505 134.99 156.505 134.99 156 136 C155.01 136 154.02 136 153 136 C153 135.34 153 134.68 153 134 C152.34 134 151.68 134 151 134 C150.896875 133.360625 150.79375 132.72125 150.6875 132.0625 C150.460625 131.381875 150.23375 130.70125 150 130 C148.515 129.505 148.515 129.505 147 129 C146.505 128.484375 146.01 127.96875 145.5 127.4375 C143.98527194 125.65404732 143.98527194 125.65404732 141 126 C140.67 125.01 140.34 124.02 140 123 C137.98491642 122.26676204 137.98491642 122.26676204 136 122 C136 121.34 136 120.68 136 120 C134.02 119.67 132.04 119.34 130 119 C129.505 117.515 129.505 117.515 129 116 C128.34 116 127.68 116 127 116 C126.505 114.515 126.505 114.515 126 113 C123.67793475 112.29508733 121.34406932 111.62787571 119 111 C118.505 110.01 118.505 110.01 118 109 C116.68 109 115.36 109 114 109 C114 108.34 114 107.68 114 107 C113.01 106.67 112.02 106.34 111 106 C110.525625 105.484375 110.05125 104.96875 109.5625 104.4375 C107.86323949 102.54862898 107.86323949 102.54862898 104 103 C103.67 101.68 103.34 100.36 103 99 C99.7 99 96.4 99 93 99 C93 98.34 93 97.68 93 97 C90.71294169 95.85647084 89.40735238 95.89665561 86.875 95.9375 C85.59625 95.958125 84.3175 95.97875 83 96 C83 95.34 83 94.68 83 94 C80.03 93.505 80.03 93.505 77 93 Z M32 94 C32 94.66 32 95.32 32 96 C31.360625 96.12375 30.72125 96.2475 30.0625 96.375 C29.381875 96.58125 28.70125 96.7875 28 97 C27.67 97.66 27.34 98.32 27 99 C26.01 99.33 25.02 99.66 24 100 C24 100.66 24 101.32 24 102 C22.35 102 20.7 102 19 102 C19 101.34 19 100.68 19 100 C18.21625 99.896875 17.4325 99.79375 16.625 99.6875 C14 99 14 99 12 96 C10.35 96.33 8.7 96.66 7 97 C7 97.66 7 98.32 7 99 C5.35 99.33 3.7 99.66 2 100 C2 100.66 2 101.32 2 102 C-1.96 102 -5.92 102 -10 102 C-10 101.34 -10 100.68 -10 100 C-12.87450983 99.74951364 -12.87450983 99.74951364 -16 100 C-16.45375 100.474375 -16.9075 100.94875 -17.375 101.4375 C-20.08096494 104.03938936 -23.34298074 103.70024432 -27 104 C-27.05437607 105.58294782 -27.09296271 107.16644256 -27.125 108.75 C-27.14820313 109.63171875 -27.17140625 110.5134375 -27.1953125 111.421875 C-26.92914901 114.93523313 -25.80574245 116.94261426 -23.69921875 119.70703125 C-21.40976423 121.44912193 -19.66006001 121.50259351 -16.8125 121.6875 C-15.91144531 121.75324219 -15.01039063 121.81898437 -14.08203125 121.88671875 C-13.39496094 121.92410156 -12.70789063 121.96148437 -12 122 C-12 122.66 -12 123.32 -12 124 C-10.68 124 -9.36 124 -8 124 C-8 123.34 -8 122.68 -8 122 C-8.66 122 -9.32 122 -10 122 C-10 119.36 -10 116.72 -10 114 C-9.34 114 -8.68 114 -8 114 C-7.67 113.34 -7.34 112.68 -7 112 C-5.68 112 -4.36 112 -3 112 C-2.67 112.66 -2.34 113.32 -2 114 C-1.34 114 -0.68 114 0 114 C0 118.62 0 123.24 0 128 C3.3 128.33 6.6 128.66 10 129 C10.33 129.99 10.66 130.98 11 132 C11.99 132 12.98 132 14 132 C14.33 132.99 14.66 133.98 15 135 C15.66 135 16.32 135 17 135 C16.67 133.35 16.34 131.7 16 130 C15.34 130 14.68 130 14 130 C14 124.72 14 119.44 14 114 C14.66 114 15.32 114 16 114 C16 113.34 16 112.68 16 112 C16.66 112 17.32 112 18 112 C18 112.66 18 113.32 18 114 C18.66 114.33 19.32 114.66 20 115 C20.6328125 117.28515625 20.6328125 117.28515625 21.125 120.0625 C21.37636719 121.44115234 21.37636719 121.44115234 21.6328125 122.84765625 C21.75398438 123.55792969 21.87515625 124.26820312 22 125 C22.66 125 23.32 125 24 125 C24 128.3 24 131.6 24 135 C24.99 134.67 25.98 134.34 27 134 C27 133.34 27 132.68 27 132 C29.475 131.505 29.475 131.505 32 131 C32 130.34 32 129.68 32 129 C34.475 128.505 34.475 128.505 37 128 C37 127.34 37 126.68 37 126 C37.84304688 125.89042969 38.68609375 125.78085938 39.5546875 125.66796875 C40.65039062 125.50941406 41.74609375 125.35085937 42.875 125.1875 C43.96554687 125.03667969 45.05609375 124.88585937 46.1796875 124.73046875 C49.31238846 124.25334259 49.31238846 124.25334259 51 121 C51.00868334 118.15765453 50.90931418 115.44895688 50.6875 112.625 C50.63916016 111.86960937 50.59082031 111.11421875 50.54101562 110.3359375 C50.27089782 106.42435821 49.77587947 102.87939736 49 99 C45.04 99 41.08 99 37 99 C36.505 97.515 36.505 97.515 36 96 C35.34 96 34.68 96 34 96 C34 95.34 34 94.68 34 94 C33.34 94 32.68 94 32 94 Z M-45 97 C-45 97.66 -45 98.32 -45 99 C-46.32 99.33 -47.64 99.66 -49 100 C-50.01540112 104.10223585 -50.01540112 104.10223585 -49 108 C-45.97065509 108.65772428 -45.97065509 108.65772428 -43 109 C-43 108.34 -43 107.68 -43 107 C-43.66 107 -44.32 107 -45 107 C-45 106.01 -45 105.02 -45 104 C-45.66 104 -46.32 104 -47 104 C-47 103.34 -47 102.68 -47 102 C-45.39667209 101.91878076 -43.79215974 101.86070866 -42.1875 101.8125 C-41.29417969 101.77769531 -40.40085937 101.74289063 -39.48046875 101.70703125 C-36.58352485 102.04918998 -35.77444972 102.75393573 -34 105 C-33.79029441 100.85906302 -33.79029441 100.85906302 -35 97 C-38.64653273 95.88578167 -41.33291043 96.05703411 -45 97 Z M62 97 C62 97.66 62 98.32 62 99 C60.35 99.33 58.7 99.66 57 100 C57 100.33 57 100.66 57 101 C59.64 101 62.28 101 65 101 C64.67 102.98 64.34 104.96 64 107 C62.35 107 60.7 107 59 107 C58.67 109.31 58.34 111.62 58 114 C58.33 113.34 58.66 112.68 59 112 C61.5625 111.375 61.5625 111.375 64 111 C64 110.34 64 109.68 64 109 C65.65 108.67 67.3 108.34 69 108 C70.83695434 103.66072031 70.83695434 103.66072031 70.125 99.125 C69.75375 98.42375 69.3825 97.7225 69 97 C66.69 97 64.38 97 62 97 Z M-60 100 C-60 100.66 -60 101.32 -60 102 C-62.31 102.66 -64.62 103.32 -67 104 C-67 104.66 -67 105.32 -67 106 C-67.99 106.33 -68.98 106.66 -70 107 C-70 107.66 -70 108.32 -70 109 C-71.98 109.33 -73.96 109.66 -76 110 C-76 110.66 -76 111.32 -76 112 C-76.61875 112.144375 -77.2375 112.28875 -77.875 112.4375 C-80.03258322 112.93152225 -80.03258322 112.93152225 -82 114 C-82 114.99 -82 115.98 -82 117 C-83.32 117 -84.64 117 -86 117 C-85.67 117.66 -85.34 118.32 -85 119 C-83.70231689 118.51781006 -83.70231689 118.51781006 -82.37841797 118.02587891 C-79.07274364 117.02208909 -76.38369823 116.69227933 -72.9453125 116.5859375 C-71.83671875 116.54726562 -70.728125 116.50859375 -69.5859375 116.46875 C-68.44382812 116.4378125 -67.30171875 116.406875 -66.125 116.375 C-64.9596875 116.33632812 -63.794375 116.29765625 -62.59375 116.2578125 C-59.72932136 116.16389681 -56.86489308 116.07822017 -54 116 C-54.33 115.01 -54.66 114.02 -55 113 C-55.66 113 -56.32 113 -57 113 C-57.495 106.565 -57.495 106.565 -58 100 C-58.66 100 -59.32 100 -60 100 Z M-42 109 C-42 109.66 -42 110.32 -42 111 C-39.03 111.495 -39.03 111.495 -36 112 C-36 113.98 -36 115.96 -36 118 C-35.34 118 -34.68 118 -34 118 C-33.79029441 113.85906302 -33.79029441 113.85906302 -35 110 C-37.32156597 109.59270772 -39.6568787 109.25561323 -42 109 Z M-93 122 C-93.33 122.66 -93.66 123.32 -94 124 C-93.34 124 -92.68 124 -92 124 C-92.33 123.34 -92.66 122.68 -93 122 Z M82 124 C82 124.66 82 125.32 82 126 C80.1746875 125.9690625 80.1746875 125.9690625 78.3125 125.9375 C75.08022678 125.93175884 72.15065259 126.21233685 69 127 C69 127.66 69 128.32 69 129 C65.7 129.33 62.4 129.66 59 130 C59 130.66 59 131.32 59 132 C57.7625 132.144375 56.525 132.28875 55.25 132.4375 C52.43495501 132.78688502 49.7298503 133.20379366 47 134 C47 134.66 47 135.32 47 136 C42.545 136.495 42.545 136.495 38 137 C38 137.66 38 138.32 38 139 C36.02 139 34.04 139 32 139 C31.67 139.99 31.34 140.98 31 142 C33.97 141.67 36.94 141.34 40 141 C40 140.34 40 139.68 40 139 C43.3 138.67 46.6 138.34 50 138 C50 137.34 50 136.68 50 136 C50.67546875 135.93941406 51.3509375 135.87882813 52.046875 135.81640625 C52.93890625 135.73261719 53.8309375 135.64882812 54.75 135.5625 C55.63171875 135.48128906 56.5134375 135.40007812 57.421875 135.31640625 C59.69350452 135.03761535 61.79851823 134.61209423 64 134 C64 133.34 64 132.68 64 132 C69.94 131.505 69.94 131.505 76 131 C76 130.34 76 129.68 76 129 C82.435 128.505 82.435 128.505 89 128 C89 127.34 89 126.68 89 126 C89.78503906 125.93941406 90.57007813 125.87882812 91.37890625 125.81640625 C96.95361148 125.37179786 102.47640616 124.87875357 108 124 C108 123.67 108 123.34 108 123 C94.96563552 122.82498702 94.96563552 122.82498702 82 124 Z M-76 127 C-76 127.33 -76 127.66 -76 128 C-70.72 128.33 -65.44 128.66 -60 129 C-60 128.34 -60 127.68 -60 127 C-65.28 127 -70.56 127 -76 127 Z M-104 129 C-104 129.66 -104 130.32 -104 131 C-103.34 131 -102.68 131 -102 131 C-102 130.34 -102 129.68 -102 129 C-102.66 129 -103.32 129 -104 129 Z M-59 129 C-59 129.66 -59 130.32 -59 131 C-55.04 131.33 -51.08 131.66 -47 132 C-47 132.66 -47 133.32 -47 134 C-45.43883181 134.33951619 -43.87598662 134.67132544 -42.3125 135 C-41.00732422 135.2784375 -41.00732422 135.2784375 -39.67578125 135.5625 C-37.06287036 135.98972047 -34.64186962 136.07616201 -32 136 C-32 136.66 -32 137.32 -32 138 C-27.71 138.33 -23.42 138.66 -19 139 C-19 139.66 -19 140.32 -19 141 C-6.35776917 143.89715035 -6.35776917 143.89715035 6 142 C6 141.34 6 140.68 6 140 C4.02 139.67 2.04 139.34 0 139 C0 138.34 0 137.68 0 137 C-2.64 136.67 -5.28 136.34 -8 136 C-8 135.34 -8 134.68 -8 134 C-13.38027025 132.80911014 -18.45291384 131.7080481 -24 132 C-24 131.34 -24 130.68 -24 130 C-31.54922814 128.97459682 -38.95090843 128.88274035 -46.5625 128.9375 C-48.36170898 128.94426758 -48.36170898 128.94426758 -50.19726562 128.95117188 C-53.13156359 128.96286231 -56.06575449 128.97924862 -59 129 Z M-110 134 C-110 134.66 -110 135.32 -110 136 C-110.99 136.33 -111.98 136.66 -113 137 C-113.33 137.66 -113.66 138.32 -114 139 C-114.99 139.33 -115.98 139.66 -117 140 C-117 140.66 -117 141.32 -117 142 C-117.66 142 -118.32 142 -119 142 C-119.268125 142.639375 -119.53625 143.27875 -119.8125 143.9375 C-121 146 -121 146 -124 147 C-124 147.66 -124 148.32 -124 149 C-124.78375 149.226875 -125.5675 149.45375 -126.375 149.6875 C-129.66874075 151.33437038 -129.79513255 152.64358353 -131 156 C-131.99 156.33 -132.98 156.66 -134 157 C-134 157.66 -134 158.32 -134 159 C-134.78375 159.226875 -135.5675 159.45375 -136.375 159.6875 C-139.21535469 160.76670768 -139.21535469 160.76670768 -140.1875 163.5625 C-140.455625 164.366875 -140.72375 165.17125 -141 166 C-141.99 166.495 -141.99 166.495 -143 167 C-143 167.66 -143 168.32 -143 169 C-141.02 168.505 -141.02 168.505 -139 168 C-139 167.34 -139 166.68 -139 166 C-136.525 165.505 -136.525 165.505 -134 165 C-134 164.34 -134 163.68 -134 163 C-131.03 162.34 -128.06 161.68 -125 161 C-125 160.34 -125 159.68 -125 159 C-121.04 158.505 -121.04 158.505 -117 158 C-117 157.34 -117 156.68 -117 156 C-113.7 155.67 -110.4 155.34 -107 155 C-107 154.34 -107 153.68 -107 153 C-106.34 153 -105.68 153 -105 153 C-104.67 145.74 -104.34 138.48 -104 131 C-106.24740601 131 -108.20891576 132.80594384 -110 134 Z M-146 170 C-146.99 170.66 -147.98 171.32 -149 172 C-147.35 171.67 -145.7 171.34 -144 171 C-144.66 170.67 -145.32 170.34 -146 170 Z M-53 194 C-53 194.66 -53 195.32 -53 196 C-56.3 196.33 -59.6 196.66 -63 197 C-63 197.66 -63 198.32 -63 199 C-66.3 199.66 -69.6 200.32 -73 201 C-73 201.66 -73 202.32 -73 203 C-74.98 203.33 -76.96 203.66 -79 204 C-79 204.66 -79 205.32 -79 206 C-78.01 206 -77.02 206 -76 206 C-76 206.66 -76 207.32 -76 208 C-70.69276568 209.42705634 -66.46108889 210.4002792 -61 209 C-60.67 208.01 -60.34 207.02 -60 206 C-59.01 205.67 -58.02 205.34 -57 205 C-57 204.34 -57 203.68 -57 203 C-56.01 202.67 -55.02 202.34 -54 202 C-51.77068176 200.18739868 -51.77068176 200.18739868 -50 198 C-50 197.01 -50 196.02 -50 195 C-49.34 194.67 -48.68 194.34 -48 194 C-49.65 194 -51.3 194 -53 194 Z M208 204 C208.66 204.66 209.32 205.32 210 206 C210 205.34 210 204.68 210 204 C209.34 204 208.68 204 208 204 Z M211 206 C211.66 207.32 212.32 208.64 213 210 C213 208.68 213 207.36 213 206 C212.34 206 211.68 206 211 206 Z M213 210 C214 212 214 212 214 212 Z M-117 218 C-117 220.31 -117 222.62 -117 225 C-114.75124253 225.86850174 -114.75124253 225.86850174 -112 226 C-109.14842545 224.30252228 -109.14842545 224.30252228 -107 222 C-107 221.34 -107 220.68 -107 220 C-106.34 220 -105.68 220 -105 220 C-104.67 219.01 -104.34 218.02 -104 217 C-105.41655793 216.9727585 -106.83327045 216.95349533 -108.25 216.9375 C-109.03890625 216.92589844 -109.8278125 216.91429687 -110.640625 216.90234375 C-112.90691002 216.99614694 -114.8288895 217.36758937 -117 218 Z M-82 221 C-82.33 222.98 -82.66 224.96 -83 227 C-84.32 227.33 -85.64 227.66 -87 228 C-87 228.66 -87 229.32 -87 230 C-87.66 230 -88.32 230 -89 230 C-89.33 232.31 -89.66 234.62 -90 237 C-90.66 237 -91.32 237 -92 237 C-92.64982399 242.73870915 -92.64982399 242.73870915 -89.9375 247.5 C-86.34538504 249.33427147 -83.98714001 249.36917963 -80 249 C-79.01 248.67 -78.02 248.34 -77 248 C-77 247.34 -77 246.68 -77 246 C-76.030625 245.87625 -75.06125 245.7525 -74.0625 245.625 C-73.051875 245.41875 -72.04125 245.2125 -71 245 C-70.67 244.34 -70.34 243.68 -70 243 C-69.01 242.67 -68.02 242.34 -67 242 C-67 241.34 -67 240.68 -67 240 C-65.68 239.34 -64.36 238.68 -63 238 C-63 237.34 -63 236.68 -63 236 C-62.01 235.67 -61.02 235.34 -60 235 C-60 234.34 -60 233.68 -60 233 C-59.01 232.67 -58.02 232.34 -57 232 C-57 231.34 -57 230.68 -57 230 C-57.99 230 -58.98 230 -60 230 C-60 229.34 -60 228.68 -60 228 C-62.90600261 226.74335022 -64.79604584 226 -68 226 C-68 225.34 -68 224.68 -68 224 C-70.31 223.67 -72.62 223.34 -75 223 C-75 222.34 -75 221.68 -75 221 C-77.31 221 -79.62 221 -82 221 Z M146.5 225.75 C144.74093652 227.86600165 144.74093652 227.86600165 145.25 230.25 C145.4975 230.8275 145.745 231.405 146 232 C147.32 232 148.64 232 150 232 C150 231.34 150 230.68 150 230 C153.465 229.505 153.465 229.505 157 229 C157.33 228.01 157.66 227.02 158 226 C157.34 226 156.68 226 156 226 C156 225.34 156 224.68 156 224 C150.93048767 223.57086287 150.93048767 223.57086287 146.5 225.75 Z M109 238 C109 238.66 109 239.32 109 240 C107.35 240.33 105.7 240.66 104 241 C104 241.66 104 242.32 104 243 C102.02 243.33 100.04 243.66 98 244 C98 244.66 98 245.32 98 246 C96.02 246.33 94.04 246.66 92 247 C91.67 247.99 91.34 248.98 91 250 C90.34 250 89.68 250 89 250 C89 252.97 89 255.94 89 259 C92.28696233 259.79953138 93.71023192 260.09658936 97 259 C97 258.34 97 257.68 97 257 C97.928125 256.731875 98.85625 256.46375 99.8125 256.1875 C103.50890802 254.81926814 103.50890802 254.81926814 106 252 C107.20049407 248.89992799 107.20049407 248.89992799 108 246 C108.66 246 109.32 246 110 246 C110.33 244.02 110.66 242.04 111 240 C111.66 240 112.32 240 113 240 C113 239.34 113 238.68 113 238 C111.68 238 110.36 238 109 238 Z M-138.5625 244.125 C-140.49026016 246.63946978 -140.65505107 248.89545967 -141 252 C-140.34 252 -139.68 252 -139 252 C-136.23979568 249.23776511 -136.23979568 249.23776511 -134 246 C-134.33 245.01 -134.66 244.02 -135 243 C-137.05038276 242.80523176 -137.05038276 242.80523176 -138.5625 244.125 Z M178.375 255.375 C175.77636223 257.65718683 175.77636223 257.65718683 176 260 C177.65 259.67 179.3 259.34 181 259 C181 258.34 181 257.68 181 257 C181.66 257 182.32 257 183 257 C183 255.68 183 254.36 183 253 C180.65718683 252.77636223 180.65718683 252.77636223 178.375 255.375 Z M34.4921875 263.49609375 C30.01193089 264.14257373 25.64387064 264.10673593 21.125 264.0625 C20.24585938 264.05798828 19.36671875 264.05347656 18.4609375 264.04882812 C16.30726197 264.03712337 14.15362183 264.01919069 12 264 C14.96352757 269.39319457 14.96352757 269.39319457 19.875 272.75 C22.44241 273.05204823 24.50496367 272.62375908 27 272 C27 271.34 27 270.68 27 270 C27.7425 270.0825 28.485 270.165 29.25 270.25 C32.81441057 269.92596268 33.64861027 268.5865287 36 266 C36.99 265.67 37.98 265.34 39 265 C39 264.34 39 263.68 39 263 C36.90092829 262.93531375 36.90092829 262.93531375 34.4921875 263.49609375 Z " fill="#010000" transform="translate(325,0)"/>
<path d="M0 0 C1.32 0 2.64 0 4 0 C4.33 7.92 4.66 15.84 5 24 C2.36 23.34 -0.28 22.68 -3 22 C-3 21.34 -3 20.68 -3 20 C-4.89646998 20.11493757 -6.79218332 20.24239642 -8.6875 20.375 C-9.74324219 20.44460937 -10.79898438 20.51421875 -11.88671875 20.5859375 C-14.90677269 20.98760089 -17.24078054 21.74069019 -20 23 C-20.02708567 24.60407328 -20.04643483 26.2082785 -20.0625 27.8125 C-20.07990234 29.15248047 -20.07990234 29.15248047 -20.09765625 30.51953125 C-19.97740109 33.57401241 -19.53617476 35.42093126 -17.4375 37.6875 C-16.963125 38.120625 -16.48875 38.55375 -16 39 C-19 40 -19 40 -22 39 C-22 38.34 -22 37.68 -22 37 C-23.65 36.67 -25.3 36.34 -27 36 C-27 35.34 -27 34.68 -27 34 C-33.435 33.505 -33.435 33.505 -40 33 C-40.33 33.99 -40.66 34.98 -41 36 C-41.99 36.495 -41.99 36.495 -43 37 C-43.02712066 38.43739513 -43.04645067 39.87493863 -43.0625 41.3125 C-43.07990234 42.51326172 -43.07990234 42.51326172 -43.09765625 43.73828125 C-43.09657855 46.16861334 -43.09657855 46.16861334 -42 49 C-40.00334402 50.67067133 -38.00348966 52.33752986 -36 54 C-36 54.66 -36 55.32 -36 56 C-34.35 56.33 -32.7 56.66 -31 57 C-30.67 57.99 -30.34 58.98 -30 60 C-35.28 60 -40.56 60 -46 60 C-46 65.28 -46 70.56 -46 76 C-45.01 76.33 -44.02 76.66 -43 77 C-43 77.99 -43 78.98 -43 80 C-42.01 80.33 -41.02 80.66 -40 81 C-39.67 82.65 -39.34 84.3 -39 86 C-38.01 86.33 -37.02 86.66 -36 87 C-36 87.66 -36 88.32 -36 89 C-35.34 89 -34.68 89 -34 89 C-33.5978125 89.8971875 -33.5978125 89.8971875 -33.1875 90.8125 C-32.12703272 93.0299713 -32.12703272 93.0299713 -30.4375 94.5 C-28.73683989 96.27460185 -28.41205818 97.61006256 -28 100 C-34.75 104 -34.75 104 -37 104 C-37 104.66 -37 105.32 -37 106 C-39.97 106.99 -39.97 106.99 -43 108 C-43 108.66 -43 109.32 -43 110 C-44.76755526 110.84026396 -46.53917263 111.67198722 -48.3125 112.5 C-49.29863281 112.9640625 -50.28476562 113.428125 -51.30078125 113.90625 C-54 115 -54 115 -57 115 C-57 115.66 -57 116.32 -57 117 C-62.94 117.33 -68.88 117.66 -75 118 C-75 118.66 -75 119.32 -75 120 C-88.05193658 123.93490416 -100.44857017 125.59630198 -114 123 C-114 122.34 -114 121.68 -114 121 C-114.66386719 121.02320313 -115.32773437 121.04640625 -116.01171875 121.0703125 C-124.85338763 121.25101814 -124.85338763 121.25101814 -129 119 C-129.928125 118.505 -130.85625 118.01 -131.8125 117.5 C-132.534375 117.005 -133.25625 116.51 -134 116 C-134 115.34 -134 114.68 -134 114 C-134.721875 113.731875 -135.44375 113.46375 -136.1875 113.1875 C-138.99766383 112.00098638 -141.48416557 110.72514361 -144 109 C-144 108.34 -144 107.68 -144 107 C-144.66 106.95875 -145.32 106.9175 -146 106.875 C-149.7601871 105.77827876 -152.11580677 103.81677895 -155.1328125 101.375 C-157.05775029 99.80969136 -157.05775029 99.80969136 -160 99 C-160.763125 98.195625 -161.52625 97.39125 -162.3125 96.5625 C-165.17295492 93.83508949 -167.21806528 92.96747167 -171 92 C-171 91.34 -171 90.68 -171 90 C-171.99 89.67 -172.98 89.34 -174 89 C-172.32598022 85.04322598 -169.86850715 82.15535787 -167 79 C-166.34 79 -165.68 79 -165 79 C-164.505 77.02 -164.505 77.02 -164 75 C-163.34 75 -162.68 75 -162 75 C-162 70.38 -162 65.76 -162 61 C-165.30994713 59.34502644 -168.99123 59.89915665 -172.625 59.9375 C-173.42679687 59.94201172 -174.22859375 59.94652344 -175.0546875 59.95117188 C-177.03649006 59.96296832 -179.01825433 59.98090395 -181 60 C-180.34 58.68 -179.68 57.36 -179 56 C-178.34 56 -177.68 56 -177 56 C-176.67 55.01 -176.34 54.02 -176 53 C-175.34 53 -174.68 53 -174 53 C-173.67 52.01 -173.34 51.02 -173 50 C-172.34 50 -171.68 50 -171 50 C-170.67 48.68 -170.34 47.36 -170 46 C-169.34 46 -168.68 46 -168 46 C-168 43.03 -168 40.06 -168 37 C-176.62030751 35.63169722 -182.96458069 36.69129793 -191 40 C-191.99 40 -192.98 40 -194 40 C-194 40.66 -194 41.32 -194 42 C-195.32 42 -196.64 42 -198 42 C-196.60746468 38.51866169 -195.36823784 37.52113967 -192 36 C-191.67 35.34 -191.34 34.68 -191 34 C-190.34 34 -189.68 34 -189 34 C-189 29.38 -189 24.76 -189 20 C-191.97 20 -194.94 20 -198 20 C-198 20.66 -198 21.32 -198 22 C-201.67387495 22.85298376 -205.0447393 23.10789471 -208.8125 23.0625 C-210.27623047 23.04896484 -210.27623047 23.04896484 -211.76953125 23.03515625 C-212.87361328 23.01775391 -212.87361328 23.01775391 -214 23 C-214 22.01 -214 21.02 -214 20 C-213.34 20 -212.68 20 -212 20 C-212.14213297 18.10388566 -212.28886907 16.20811606 -212.4375 14.3125 C-212.51871094 13.25675781 -212.59992188 12.20101562 -212.68359375 11.11328125 C-212.96451681 8.34913703 -213.40156852 5.71054259 -214 3 C-212.45761734 3.11583111 -210.91609728 3.24316572 -209.375 3.375 C-208.08722656 3.47941406 -208.08722656 3.47941406 -206.7734375 3.5859375 C-204 4 -204 4 -201.27734375 4.9140625 C-196.97785279 6.33868525 -192.63104742 7.15044949 -188.1875 8 C-170.46111654 11.43524161 -170.46111654 11.43524161 -164.6875 13.4375 C-156.947497 16.10786881 -149.10427878 17.88764801 -141 19 C-139.95457031 19.31839844 -138.90914063 19.63679688 -137.83203125 19.96484375 C-133.6984417 21.0814607 -129.74775381 21.58966242 -125.5 22 C-120.08914348 22.52269455 -115.24534566 23.49444728 -110 25 C-107.6939683 25.27069697 -105.37993625 25.48165343 -103.0625 25.625 C-101.91910156 25.69976562 -100.77570313 25.77453125 -99.59765625 25.8515625 C-98.31181641 25.92503906 -98.31181641 25.92503906 -97 26 C-97 25.34 -97 24.68 -97 24 C-96.34104736 23.86424561 -95.68209473 23.72849121 -95.00317383 23.58862305 C-74.90347357 19.77096818 -74.90347357 19.77096818 -55.1875 14.4375 C-50.05542866 12.81417595 -44.86976769 12.25277954 -39.53198242 11.73413086 C-35.86744144 11.35389489 -33.23327466 10.69125136 -30 9 C-27.29382071 8.30517018 -24.60180782 7.6618377 -21.875 7.0625 C-16.12879312 5.76327247 -10.48660769 4.35101436 -4.8828125 2.515625 C-3 2 -3 2 0 2 C0 1.34 0 0.68 0 0 Z " fill="#FA5475" transform="translate(444,128)"/>
<path d="M0 0 C0.87527344 -0.00257813 1.75054687 -0.00515625 2.65234375 -0.0078125 C5.0625 0.125 5.0625 0.125 8.0625 1.125 C8.0625 1.785 8.0625 2.445 8.0625 3.125 C9.0525 3.455 10.0425 3.785 11.0625 4.125 C11.0625 5.115 11.0625 6.105 11.0625 7.125 C12.0525 7.455 13.0425 7.785 14.0625 8.125 C14.0625 8.785 14.0625 9.445 14.0625 10.125 C15.0525 10.125 16.0425 10.125 17.0625 10.125 C17.0625 11.115 17.0625 12.105 17.0625 13.125 C18.3825 13.455 19.7025 13.785 21.0625 14.125 C21.0625 15.115 21.0625 16.105 21.0625 17.125 C22.97716367 17.00322312 22.97716367 17.00322312 25.0625 16.125 C25.5575 15.3 26.0525 14.475 26.5625 13.625 C28.0625 11.125 28.0625 11.125 30.25 10.3125 C30.848125 10.250625 31.44625 10.18875 32.0625 10.125 C32.0625 9.465 32.0625 8.805 32.0625 8.125 C33.7125 8.125 35.3625 8.125 37.0625 8.125 C37.0625 9.115 37.0625 10.105 37.0625 11.125 C36.4025 11.455 35.7425 11.785 35.0625 12.125 C40.0125 13.115 40.0125 13.115 45.0625 14.125 C45.0625 14.785 45.0625 15.445 45.0625 16.125 C46.0525 16.455 47.0425 16.785 48.0625 17.125 C48.0625 20.425 48.0625 23.725 48.0625 27.125 C46.0825 27.125 44.1025 27.125 42.0625 27.125 C42.3925 25.805 42.7225 24.485 43.0625 23.125 C43.7225 23.125 44.3825 23.125 45.0625 23.125 C45.0625 22.465 45.0625 21.805 45.0625 21.125 C44.4025 21.125 43.7425 21.125 43.0625 21.125 C43.0625 20.135 43.0625 19.145 43.0625 18.125 C41.4358152 18.40711877 39.81117104 18.70102375 38.1875 19 C36.83011719 19.24363281 36.83011719 19.24363281 35.4453125 19.4921875 C32.89744012 19.95544703 32.89744012 19.95544703 31.0625 22.125 C30.5675 24.6 30.5675 24.6 30.0625 27.125 C15.2125 27.125 0.3625 27.125 -14.9375 27.125 C-14.6075 25.805 -14.2775 24.485 -13.9375 23.125 C-11.6275 23.125 -9.3175 23.125 -6.9375 23.125 C-6.9375 22.465 -6.9375 21.805 -6.9375 21.125 C-6.2775 20.795 -5.6175 20.465 -4.9375 20.125 C-3.80399466 18.10830173 -3.80399466 18.10830173 -2.9375 16.125 C-2.2775 16.125 -1.6175 16.125 -0.9375 16.125 C-0.9375 14.475 -0.9375 12.825 -0.9375 11.125 C-1.5975 11.125 -2.2575 11.125 -2.9375 11.125 C-4.9375 8.125 -4.9375 8.125 -4.9375 4.125 C-5.5975 4.125 -6.2575 4.125 -6.9375 4.125 C-6.9375 3.135 -6.9375 2.145 -6.9375 1.125 C-4.46371876 -0.11189062 -2.75834683 -0.00810087 0 0 Z M31.0625 14.125 C30.7325 14.785 30.4025 15.445 30.0625 16.125 C30.7225 16.125 31.3825 16.125 32.0625 16.125 C31.7325 15.465 31.4025 14.805 31.0625 14.125 Z M28.0625 16.125 C28.3925 16.785 28.7225 17.445 29.0625 18.125 C29.3925 17.465 29.7225 16.805 30.0625 16.125 C29.4025 16.125 28.7425 16.125 28.0625 16.125 Z M1.0625 19.125 C0.7325 20.445 0.4025 21.765 0.0625 23.125 C2.3725 23.125 4.6825 23.125 7.0625 23.125 C6.4025 21.805 5.7425 20.485 5.0625 19.125 C3.7425 19.125 2.4225 19.125 1.0625 19.125 Z " fill="#000000" transform="translate(207.9375,258.875)"/>
<path d="M0 0 C0.9796875 -0.01417969 1.959375 -0.02835938 2.96875 -0.04296875 C5.5 0.1875 5.5 0.1875 7.5 2.1875 C7.5 3.5075 7.5 4.8275 7.5 6.1875 C5.52 5.8575 3.54 5.5275 1.5 5.1875 C1.5 4.5275 1.5 3.8675 1.5 3.1875 C0.18 3.1875 -1.14 3.1875 -2.5 3.1875 C-2.5 3.8475 -2.5 4.5075 -2.5 5.1875 C-3.139375 5.290625 -3.77875 5.39375 -4.4375 5.5 C-5.4584375 5.8403125 -5.4584375 5.8403125 -6.5 6.1875 C-6.83 7.1775 -7.16 8.1675 -7.5 9.1875 C-7.83 9.5175 -8.16 9.8475 -8.5 10.1875 C-7.51 10.1875 -6.52 10.1875 -5.5 10.1875 C-5.5 9.5275 -5.5 8.8675 -5.5 8.1875 C-2.53650719 7.19966906 -0.5287337 7.05339475 2.5625 7.0625 C3.44035156 7.05992187 4.31820313 7.05734375 5.22265625 7.0546875 C7.5 7.1875 7.5 7.1875 9.5 8.1875 C9.5 10.4975 9.5 12.8075 9.5 15.1875 C8.84 15.1875 8.18 15.1875 7.5 15.1875 C7.355625 15.950625 7.21125 16.71375 7.0625 17.5 C6.5 20.1875 6.5 20.1875 5.5 23.1875 C4.84 23.1875 4.18 23.1875 3.5 23.1875 C3.17 24.1775 2.84 25.1675 2.5 26.1875 C1.84 26.1875 1.18 26.1875 0.5 26.1875 C0.5 26.8475 0.5 27.5075 0.5 28.1875 C-4.36051596 30.77977518 -9.15271133 30.37439553 -14.5 30.1875 C-14.83 28.8675 -15.16 27.5475 -15.5 26.1875 C-16.82 26.1875 -18.14 26.1875 -19.5 26.1875 C-19.83 27.1775 -20.16 28.1675 -20.5 29.1875 C-23.5 31.1875 -23.5 31.1875 -27.5 31.1875 C-27.5 30.1975 -27.5 29.2075 -27.5 28.1875 C-25.86739286 26.81267293 -24.19774938 25.48102333 -22.5 24.1875 C-21.84 23.1975 -21.18 22.2075 -20.5 21.1875 C-19.84 21.1875 -19.18 21.1875 -18.5 21.1875 C-18.17 19.2075 -17.84 17.2275 -17.5 15.1875 C-16.84 15.1875 -16.18 15.1875 -15.5 15.1875 C-15.17 13.5375 -14.84 11.8875 -14.5 10.1875 C-13.84 10.1875 -13.18 10.1875 -12.5 10.1875 C-12.4175 9.445 -12.335 8.7025 -12.25 7.9375 C-11.35089597 4.64078523 -10.07630066 3.37345208 -7.5 1.1875 C-4.89820337 -0.11339831 -2.9030812 0.01909922 0 0 Z M-3.5 13.1875 C-3.5 13.8475 -3.5 14.5075 -3.5 15.1875 C-4.8921875 15.3421875 -4.8921875 15.3421875 -6.3125 15.5 C-9.41494414 15.96522511 -9.41494414 15.96522511 -11.375 17.4375 C-12.87422891 19.76963386 -12.72023906 21.47121825 -12.5 24.1875 C-8.91672247 25.18967064 -8.91672247 25.18967064 -5.5 24.1875 C-5.5 23.5275 -5.5 22.8675 -5.5 22.1875 C-4.860625 22.084375 -4.22125 21.98125 -3.5625 21.875 C-2.881875 21.648125 -2.20125 21.42125 -1.5 21.1875 C-1.17 20.1975 -0.84 19.2075 -0.5 18.1875 C0.49 17.8575 1.48 17.5275 2.5 17.1875 C2.5 16.5275 2.5 15.8675 2.5 15.1875 C3.16 15.1875 3.82 15.1875 4.5 15.1875 C4.5 14.1975 4.5 13.2075 4.5 12.1875 C1.38742431 12.1875 -0.60765685 12.36111624 -3.5 13.1875 Z " fill="#000000" transform="translate(473.5,254.8125)"/>
<path d="M0 0 C1.32 0 2.64 0 4 0 C5.07093699 3.48595741 5.12068195 6.69356731 5.11352539 10.32910156 C5.11344986 11.61012756 5.11337433 12.89115356 5.11329651 14.21099854 C5.10819026 15.60420775 5.10297427 16.99741657 5.09765625 18.390625 C5.09579032 19.81980337 5.09436724 21.24898238 5.09336853 22.67816162 C5.08955715 26.43300148 5.07973867 30.18780243 5.06866455 33.94262695 C5.05842075 37.77685012 5.05386455 41.61107959 5.04882812 45.4453125 C5.03811514 52.96355937 5.02105531 60.48177423 5 68 C2 68 2 68 0.34448242 66.40039062 C-1.38009255 63.32139641 -1.4308863 61.11754737 -1.51171875 57.59375 C-1.54740967 56.30500977 -1.58310059 55.01626953 -1.61987305 53.68847656 C-1.64315039 52.29232977 -1.66567604 50.89617027 -1.6875 49.5 C-1.71902974 48.06996961 -1.75134643 46.63995637 -1.78442383 45.20996094 C-1.8639971 41.5321475 -1.92191338 37.85436578 -1.97070312 34.17602539 C-1.99923611 32.05673781 -2.03238288 29.93756505 -2.06640625 27.81835938 C-2.12559194 23.96233769 -2.16019497 20.10638959 -2.1875 16.25 C-2.20063232 15.07373047 -2.21376465 13.89746094 -2.22729492 12.68554688 C-2.22834229 11.59822266 -2.22938965 10.51089844 -2.23046875 9.390625 C-2.23457764 8.44219727 -2.23868652 7.49376953 -2.24291992 6.51660156 C-1.98926912 3.88883027 -1.33618053 2.25465985 0 0 Z " fill="#0B0305" transform="translate(325,157)"/>
<path d="M0 0 C3.63 0 7.26 0 11 0 C11 0.66 11 1.32 11 2 C11.928125 2.185625 11.928125 2.185625 12.875 2.375 C15 3 15 3 17 5 C17.125 8.125 17.125 8.125 17 11 C16.34 11 15.68 11 15 11 C14.9175 11.9075 14.835 12.815 14.75 13.75 C13.88763036 17.48693511 13.03940253 18.7204481 10 21 C7.25 21.75 7.25 21.75 5 22 C5 22.66 5 23.32 5 24 C0.44573816 26.66590937 -2.73946963 27.31563182 -8 27 C-8 26.34 -8 25.68 -8 25 C-8.99 25 -9.98 25 -11 25 C-11 24.01 -11 23.02 -11 22 C-11.66 22 -12.32 22 -13 22 C-13 19.36 -13 16.72 -13 14 C-12.34 14 -11.68 14 -11 14 C-10.67 12.35 -10.34 10.7 -10 9 C-9.34 9 -8.68 9 -8 9 C-7.731875 8.401875 -7.46375 7.80375 -7.1875 7.1875 C-5.99012525 4.98180967 -4.95521016 3.56416813 -3 2 C-2.01 2 -1.02 2 0 2 C0 1.34 0 0.68 0 0 Z M1 5 C1 5.66 1 6.32 1 7 C-0.32 7.33 -1.64 7.66 -3 8 C-3 8.66 -3 9.32 -3 10 C-3.66 10 -4.32 10 -5 10 C-5.33 11.32 -5.66 12.64 -6 14 C-6.66 14 -7.32 14 -8 14 C-9.01540112 18.10223585 -9.01540112 18.10223585 -8 22 C-6.35 22 -4.7 22 -3 22 C-3 21.34 -3 20.68 -3 20 C-2.030625 19.87625 -1.06125 19.7525 -0.0625 19.625 C0.948125 19.41875 1.95875 19.2125 3 19 C3.33 18.34 3.66 17.68 4 17 C4.99 16.67 5.98 16.34 7 16 C7 15.34 7 14.68 7 14 C7.99 13.67 8.98 13.34 10 13 C10 12.01 10 11.02 10 10 C10.99 9.67 11.98 9.34 13 9 C12.67 8.34 12.34 7.68 12 7 C11.34 7 10.68 7 10 7 C10 6.34 10 5.68 10 5 C7.03 5 4.06 5 1 5 Z " fill="#000000" transform="translate(278,253)"/>
<path d="M0 0 C1.65 0.33 3.3 0.66 5 1 C5.9569469 12.99601296 6.11117507 24.97262415 6.125 37 C6.12749756 37.77277283 6.12999512 38.54554565 6.13256836 39.34173584 C6.13845226 41.56120297 6.13697077 43.78053136 6.1328125 46 C6.13168457 47.299375 6.13055664 48.59875 6.12939453 49.9375 C6 53 6 53 5 55 C3.35 55 1.7 55 0 55 C-1.15006247 44.90093211 -1.15353898 34.83860043 -1.13037109 24.6875 C-1.12494519 21.84630154 -1.13037898 19.00525657 -1.13671875 16.1640625 C-1.13605906 14.35677048 -1.13478017 12.54947856 -1.1328125 10.7421875 C-1.13483673 9.89332977 -1.13686096 9.04447205 -1.13894653 8.16989136 C-1.11500247 2.23000495 -1.11500247 2.23000495 0 0 Z " fill="#16070A" transform="translate(354,162)"/>
<path d="M0 0 C1.765625 1.22265625 1.765625 1.22265625 3 3 C3.07421875 5.26171875 3.07421875 5.26171875 2.6875 7.6875 C2.56761719 8.49574219 2.44773437 9.30398438 2.32421875 10.13671875 C2.21722656 10.75160156 2.11023438 11.36648438 2 12 C1.34 12 0.68 12 0 12 C-0.33 12.99 -0.66 13.98 -1 15 C-4.79441811 17.0647104 -8.04809172 17.21872326 -12.3125 17.125 C-13.38113281 17.10695313 -14.44976562 17.08890625 -15.55078125 17.0703125 C-16.35902344 17.04710937 -17.16726563 17.02390625 -18 17 C-18 16.01 -18 15.02 -18 14 C-17.34 13.67 -16.68 13.34 -16 13 C-16.04125 11.906875 -16.0825 10.81375 -16.125 9.6875 C-16 6 -16 6 -14 3 C-13.34 3 -12.68 3 -12 3 C-12 2.34 -12 1.68 -12 1 C-7.96961634 -0.34346122 -4.20161608 -0.26676927 0 0 Z M-8.75 7.1875 C-10.28838998 9.41816548 -10.64005447 11.3364031 -11 14 C-10.01 13.67 -9.02 13.34 -8 13 C-8 12.34 -8 11.68 -8 11 C-7.01 10.67 -6.02 10.34 -5 10 C-3.31461399 8.00334686 -3.31461399 8.00334686 -2 6 C-5.58743484 5.69148755 -5.58743484 5.69148755 -8.75 7.1875 Z " fill="#000000" transform="translate(306,269)"/>
<path d="M0 0 C0.66 0.33 1.32 0.66 2 1 C2.6328125 3.28515625 2.6328125 3.28515625 3.125 6.0625 C3.29257812 6.98160156 3.46015625 7.90070313 3.6328125 8.84765625 C3.75398438 9.55792969 3.87515625 10.26820313 4 11 C-0.12543911 11.11187631 -3.09974969 10.3566088 -7 9 C-7.99 9 -8.98 9 -10 9 C-10 9.66 -10 10.32 -10 11 C-12.97 11 -15.94 11 -19 11 C-18.67 9.68 -18.34 8.36 -18 7 C-17.34 7 -16.68 7 -16 7 C-15.79375 6.401875 -15.5875 5.80375 -15.375 5.1875 C-11.80843986 -0.48657295 -6.00589414 -0.40039294 0 0 Z " fill="#000000" transform="translate(400,275)"/>
<path d="M0 0 C0.33 0.99 0.66 1.98 1 3 C1.66 3 2.32 3 3 3 C3.34982212 6.14839906 3.24633224 7.62023779 1.5 10.3125 C-2.12825641 12.76157308 -4.67840225 12.28810652 -9 12 C-9.0270043 10.54176788 -9.04639787 9.08339325 -9.0625 7.625 C-9.07410156 6.81289063 -9.08570313 6.00078125 -9.09765625 5.1640625 C-9 3 -9 3 -8 1 C-5.07175348 0.02391783 -3.04386724 -0.08226668 0 0 Z " fill="#000000" transform="translate(433,269)"/>
<path d="M0 0 C2.31 0 4.62 0 7 0 C8.49594333 4.67482292 8.54799337 9.35601989 7 14 C4.69 14 2.38 14 0 14 C-0.89214652 11.32356043 -1.13540211 9.74615622 -1.125 7 C-1.12757813 6.319375 -1.13015625 5.63875 -1.1328125 4.9375 C-1 3 -1 3 0 0 Z " fill="#000000" transform="translate(352,112)"/>
<path d="M0 0 C2.37587624 0.11486425 4.75015171 0.24158156 7.125 0.375 C8.12273437 0.42140625 8.12273437 0.42140625 9.140625 0.46875 C13.41430814 0.72014313 17.00164742 1.50061778 21 3 C22.28866931 3.38517422 23.5798124 3.76234747 24.875 4.125 C26.421875 4.558125 26.421875 4.558125 28 5 C24.25218303 6.31404941 21.18231004 5.75769011 17.3125 5.125 C16.15363281 4.94195312 14.99476563 4.75890625 13.80078125 4.5703125 C11 4 11 4 10 3 C8.32115762 2.6068352 6.63149955 2.25914548 4.9375 1.9375 C4.01839844 1.76089844 3.09929687 1.58429688 2.15234375 1.40234375 C1.44207031 1.26957031 0.73179687 1.13679687 0 1 C0 0.67 0 0.34 0 0 Z " fill="#762737" transform="translate(293,145)"/>
<path d="M0 0 C1.23556641 0.01740234 1.23556641 0.01740234 2.49609375 0.03515625 C3.32238281 0.04417969 4.14867187 0.05320313 5 0.0625 C5.63808594 0.07410156 6.27617187 0.08570313 6.93359375 0.09765625 C6.60359375 0.75765625 6.27359375 1.41765625 5.93359375 2.09765625 C3.61202778 2.50494853 1.27671505 2.84204302 -1.06640625 3.09765625 C-1.06640625 3.75765625 -1.06640625 4.41765625 -1.06640625 5.09765625 C-2.38640625 5.09765625 -3.70640625 5.09765625 -5.06640625 5.09765625 C-2.6606399 0.12573913 -2.6606399 0.12573913 0 0 Z " fill="#993347" transform="translate(251.06640625,164.90234375)"/>
<path d="M0 0 C0.33 0.66 0.66 1.32 1 2 C5.62 2 10.24 2 15 2 C15 2.33 15 2.66 15 3 C6.585 3.495 6.585 3.495 -2 4 C-1.34 2.68 -0.68 1.36 0 0 Z " fill="#B33C54" transform="translate(265,184)"/>
<path d="M0 0 C1.32 0.66 2.64 1.32 4 2 C4 2.66 4 3.32 4 4 C-0.62 4 -5.24 4 -10 4 C-10 3.34 -10 2.68 -10 2 C-6.7 2 -3.4 2 0 2 C0 1.34 0 0.68 0 0 Z " fill="#882D40" transform="translate(410,184)"/>
<path d="M0 0 C1.98 0 3.96 0 6 0 C6 0.33 6 0.66 6 1 C4.02 1 2.04 1 0 1 C0 0.67 0 0.34 0 0 Z " fill="#000000" transform="translate(471,285)"/>
</svg>
