<?xml version="1.0" encoding="UTF-8"?>
<svg version="1.1" xmlns="http://www.w3.org/2000/svg" width="349" height="133">
<path d="M0 0 C6.38805472 0.12316887 10.74158922 1.30628346 15.34814453 5.74267578 C19.10763024 10.00930619 21.86767578 13.58393241 21.86767578 19.31689453 C23.17788696 19.30579147 24.48809814 19.29468842 25.8380127 19.2832489 C38.1970059 19.18180661 50.55591443 19.10689694 62.9152298 19.05783367 C69.26902138 19.03176153 75.62247635 18.99640575 81.97607422 18.93969727 C88.10987142 18.88529439 94.24334523 18.85545607 100.37736511 18.84250832 C102.71531768 18.83328345 105.05325294 18.8152693 107.3910675 18.78824425 C110.67076601 18.75184544 113.94913529 18.74695392 117.22900391 18.74926758 C118.19141998 18.7312912 119.15383606 18.71331482 120.14541626 18.6947937 C127.35308998 18.74966222 132.24855698 20.72320045 137.39203644 25.83054638 C142.11176375 31.24290236 143.16779769 35.19102726 143.17407227 42.26318359 C143.18239578 43.06046371 143.1907193 43.85774384 143.19929504 44.67918396 C143.2233795 47.31367895 143.23216616 49.94792613 143.23876953 52.58251953 C143.24773858 54.41851881 143.25686048 56.25451734 143.26612854 58.09051514 C143.28261794 61.94056981 143.29031829 65.79053754 143.29321289 69.640625 C143.29858999 74.56127644 143.3362422 79.48110435 143.38195705 84.40152359 C143.41178256 88.19522034 143.41893767 91.98872033 143.41993904 95.78252411 C143.42413212 97.59573886 143.43652968 99.40895469 143.45745659 101.22205353 C143.63930472 118.34330117 143.63930472 118.34330117 139.24085999 123.94696045 C134.10682744 129.06884151 129.88697479 132.56182422 122.41588974 132.57695675 C121.30165595 132.58402234 120.18742216 132.59108793 119.0394237 132.59836763 C117.20326743 132.59474501 117.20326743 132.59474501 115.33001709 132.59104919 C113.37937753 132.59890421 113.37937753 132.59890421 111.3893311 132.60691792 C107.77669069 132.62111242 104.16413625 132.62276094 100.55147195 132.62232101 C96.65631085 132.62396795 92.76118531 132.6370322 88.86604309 132.64851379 C80.34741996 132.6713728 71.82882172 132.67928541 63.31017208 132.68434024 C57.99131588 132.6875963 52.67246692 132.69411823 47.35361481 132.70134163 C32.62785958 132.72090895 17.90211108 132.73731231 3.17634201 132.74021816 C2.233827 132.74040573 1.29131199 132.7405933 0.32023592 132.74078656 C-1.59048478 132.74115281 -3.50120548 132.74151651 -5.41192618 132.74187767 C-6.36041437 132.74206048 -7.30890256 132.74224329 -8.28613281 132.74243164 C-9.71060125 132.74270246 -9.71060125 132.74270246 -11.16384682 132.74297876 C-26.55181705 132.74652046 -41.93964734 132.773542 -57.32756904 132.81092953 C-73.12531517 132.84900568 -88.92299186 132.86837559 -104.7207849 132.86867768 C-113.59100836 132.86926241 -122.46106491 132.87776479 -131.33124542 132.90667534 C-138.88440634 132.93118002 -146.43733947 132.93847837 -153.99052939 132.92342781 C-157.843772 132.91625501 -161.69656474 132.91713169 -165.549757 132.93983841 C-169.72907953 132.96423083 -173.90737704 132.94980318 -178.08673096 132.93162537 C-179.30191225 132.94482533 -180.51709355 132.9580253 -181.76909852 132.97162527 C-189.74478116 132.89227981 -194.94395958 131.50113767 -200.64728284 125.80342668 C-205.38579747 120.40645008 -206.43245063 116.43769045 -206.4387207 109.37060547 C-206.44704422 108.57332535 -206.45536774 107.77604523 -206.46394348 106.9546051 C-206.48802794 104.32011011 -206.49681459 101.68586293 -206.50341797 99.05126953 C-206.51238702 97.21527025 -206.52150891 95.37927172 -206.53077698 93.54327393 C-206.54726638 89.69321925 -206.55496673 85.84325152 -206.55786133 81.99316406 C-206.56323842 77.07251262 -206.60089064 72.15268472 -206.64660549 67.23226547 C-206.676431 63.43856872 -206.68358611 59.64506873 -206.68458748 55.85126495 C-206.68878056 54.0380502 -206.70117812 52.22483437 -206.72210503 50.41173553 C-206.90395316 33.2904879 -206.90395316 33.2904879 -202.50550842 27.68682861 C-198.15310257 23.34472425 -194.20844139 19.54825144 -187.86024094 19.07079887 C-186.5512949 19.07264246 -185.24234886 19.07448605 -183.89373779 19.0763855 C-183.16344777 19.07467665 -182.43315775 19.0729678 -181.68073773 19.07120717 C-179.23318503 19.06791239 -176.78590636 19.07891567 -174.33837891 19.08984375 C-172.58411668 19.09040787 -170.82985399 19.09009129 -169.07559204 19.08895874 C-164.31147676 19.08838425 -159.54746193 19.10015424 -154.78337002 19.11410666 C-149.80523117 19.12659787 -144.82709009 19.12778324 -139.84893799 19.13015747 C-130.42131847 19.13637697 -120.99374525 19.15279416 -111.56614614 19.17285645 C-100.83349502 19.19520082 -90.1008417 19.2062052 -79.36817312 19.21624732 C-57.28953096 19.23715997 -35.21093051 19.27234509 -13.13232422 19.31689453 C-13.4582959 18.7190918 -13.78426758 18.12128906 -14.12011719 17.50537109 C-15.46637839 14.59464137 -15.32667231 12.25690673 -15.25732422 9.06689453 C-15.23927734 7.98923828 -15.22123047 6.91158203 -15.20263672 5.80126953 C-15.17943359 4.98142578 -15.15623047 4.16158203 -15.13232422 3.31689453 C-14.32794922 3.00751953 -13.52357422 2.69814453 -12.69482422 2.37939453 C-8.14348861 0.49225538 -5.25543806 0.01115804 0 0 Z M-9.13232422 12.31689453 C-9.13232422 12.97689453 -9.13232422 13.63689453 -9.13232422 14.31689453 C-8.47232422 13.98689453 -7.81232422 13.65689453 -7.13232422 13.31689453 C-7.79232422 12.98689453 -8.45232422 12.65689453 -9.13232422 12.31689453 Z " fill="#FEDFB0" transform="translate(206.13232421875,0.68310546875)"/>
<path d="M0 0 C13.81279606 -0.11701087 27.62551481 -0.20474178 41.43870544 -0.25906086 C47.8530295 -0.28513381 54.26702015 -0.32049109 60.68115234 -0.37719727 C66.87330392 -0.43159722 73.06513518 -0.46143786 79.25750732 -0.47438622 C81.6177881 -0.4836116 83.9780517 -0.50162676 86.3381958 -0.52865028 C89.64902375 -0.56504513 92.95853485 -0.56994076 96.26953125 -0.56762695 C97.24129807 -0.58560333 98.21306488 -0.60357971 99.21427917 -0.62210083 C106.45337262 -0.56750194 111.35729438 1.38203373 116.52400208 6.51365185 C121.24445839 11.92540704 122.30012209 15.87433543 122.30639648 22.94628906 C122.31472 23.74356918 122.32304352 24.5408493 122.33161926 25.36228943 C122.35570372 27.99678442 122.36449037 30.6310316 122.37109375 33.265625 C122.3800628 35.10162428 122.3891847 36.93762281 122.39845276 38.77362061 C122.41494216 42.62367528 122.42264251 46.47364301 122.42553711 50.32373047 C122.43091421 55.24438191 122.46856642 60.16420981 122.51428127 65.08462906 C122.54410678 68.87832581 122.55126189 72.6718258 122.55226326 76.46562958 C122.55645634 78.27884433 122.5688539 80.09206016 122.58978081 81.905159 C122.77162894 99.02640664 122.77162894 99.02640664 118.3731842 104.63006592 C110.38031926 112.60401294 110.38031926 112.60401294 104.89921951 113.24609566 C104.14334927 113.24425207 103.38747902 113.24240849 102.60870361 113.24050903 C101.30046883 113.24463303 101.30046883 113.24463303 99.96580505 113.24884033 C99.01706009 113.24164978 98.06831512 113.23445923 97.09082031 113.22705078 C96.08561844 113.22734283 95.08041656 113.22763489 94.04475403 113.22793579 C90.72245652 113.22654254 87.40038333 113.21098133 84.078125 113.1953125 C81.77455772 113.19158236 79.47098886 113.18873539 77.16741943 113.18673706 C71.1043866 113.1791007 65.04144957 113.15945209 58.97845459 113.1373291 C52.79163916 113.11687079 46.60480825 113.10773537 40.41796875 113.09765625 C28.27860374 113.07620629 16.13930984 113.04207022 4 113 C4.15349915 111.23612968 4.30894274 109.47242851 4.46520996 107.70880127 C4.55156456 106.72662251 4.63791916 105.74444374 4.72689056 104.73250198 C5.02565859 101.74328183 5.51352391 98.85601381 6.15625 95.921875 C6.37410156 94.90609375 6.59195313 93.8903125 6.81640625 92.84375 C7.04199219 91.8228125 7.26757812 90.801875 7.5 89.75 C9.53483427 80.42526808 9.53483427 80.42526808 11 71 C14.715095 69.61985957 16.66662442 70.4510998 20.25 71.9375 C28.36829965 74.83689273 38.64600311 75.62127963 47 73 C46.96884964 63.93524494 45.37277119 58.25324111 40 51 C39.26910156 50.01290039 39.26910156 50.01290039 38.5234375 49.00585938 C27.52203663 32.59074219 27.52203663 32.59074219 13 20 C6.87244061 19.45289648 2.78686281 20.59871823 -2.80078125 23.125 C-5 24 -5 24 -8 24 C-8 22.02 -8 20.04 -8 18 C-6.35 18.33 -4.7 18.66 -3 19 C-2.566875 18.360625 -2.13375 17.72125 -1.6875 17.0625 C0 15 0 15 3 14 C4.22969878 10.48809191 4.22969878 10.48809191 5 7 C4.071875 7.309375 4.071875 7.309375 3.125 7.625 C2.42375 7.74875 1.7225 7.8725 1 8 C0.34 7.34 -0.32 6.68 -1 6 C-0.625 2.875 -0.625 2.875 0 0 Z " fill="#FEDFB0" transform="translate(227,20)"/>
<path d="M0 0 C6.38805472 0.12316887 10.74158922 1.30628346 15.34814453 5.74267578 C16.68017578 7.25439453 16.68017578 7.25439453 18.86767578 10.31689453 C19.48642578 11.05939453 20.10517578 11.80189453 20.74267578 12.56689453 C22.48972847 16.83746778 21.58839868 20.84493918 20.86767578 25.31689453 C22.51767578 25.64689453 24.16767578 25.97689453 25.86767578 26.31689453 C25.61767578 29.69189453 25.61767578 29.69189453 24.86767578 33.31689453 C22.99267578 34.50439453 22.99267578 34.50439453 20.86767578 35.31689453 C19.13341806 37.3500646 19.13341806 37.3500646 17.86767578 39.31689453 C16.54767578 38.98689453 15.22767578 38.65689453 13.86767578 38.31689453 C13.53767578 39.96689453 13.20767578 41.61689453 12.86767578 43.31689453 C13.71330078 42.95595703 14.55892578 42.59501953 15.43017578 42.22314453 C27.93056886 37.10934736 27.93056886 37.10934736 33.86767578 38.31689453 C46.81858804 46.06046082 61.93444161 66.67233842 67.86767578 80.31689453 C68.06298828 83.33251953 68.06298828 83.33251953 67.99267578 86.56689453 C67.97462891 87.64455078 67.95658203 88.72220703 67.93798828 89.83251953 C67.91478516 90.65236328 67.89158203 91.47220703 67.86767578 92.31689453 C64.19876418 94.65676162 60.59123173 94.69987574 56.36767578 94.69189453 C55.66296143 94.69318359 54.95824707 94.69447266 54.23217773 94.69580078 C48.47664493 94.58117209 43.58878729 93.32334986 38.22314453 91.19189453 C35.81776025 90.14278175 35.81776025 90.14278175 32.86767578 90.31689453 C32.73192139 91.09178223 32.59616699 91.86666992 32.45629883 92.66503906 C31.82528201 96.25780264 31.19024431 99.84984502 30.55517578 103.44189453 C30.34183594 104.66005859 30.12849609 105.87822266 29.90869141 107.13330078 C29.69277344 108.35146484 29.47685547 109.56962891 29.25439453 110.82470703 C28.96375122 112.4743042 28.96375122 112.4743042 28.66723633 114.15722656 C27.49987604 120.23035161 26.16346672 126.26987016 24.86767578 132.31689453 C-26.28232422 132.31689453 -77.43232422 132.31689453 -130.13232422 132.31689453 C-125.63430608 124.44536279 -125.63430608 124.44536279 -122.92529297 121.63330078 C-122.34215332 121.01970703 -121.75901367 120.40611328 -121.15820312 119.77392578 C-120.24820557 118.83613281 -120.24820557 118.83613281 -119.31982422 117.87939453 C-118.05970112 116.5587415 -116.80057432 115.23713708 -115.54248047 113.91455078 C-114.64940186 112.97893311 -114.64940186 112.97893311 -113.73828125 112.02441406 C-111.84377666 110.01009891 -110.04000903 107.93047211 -108.25732422 105.81689453 C-98.74978059 94.8170276 -98.74978059 94.8170276 -91.12231445 94.13793945 C-85.17721344 94.05916464 -79.91722438 95.08367611 -74.19482422 96.62939453 C-73.31455566 96.85796143 -72.43428711 97.08652832 -71.52734375 97.32202148 C-66.41602148 98.66169403 -61.3490522 100.1109916 -56.30810547 101.69580078 C-53.00010481 102.6400954 -49.64316263 103.2683623 -46.26123047 103.88720703 C-44.13232422 104.31689453 -44.13232422 104.31689453 -41.13232422 105.31689453 C-40.66826172 104.14126953 -40.66826172 104.14126953 -40.19482422 102.94189453 C-39.13232422 100.31689453 -39.13232422 100.31689453 -38.13232422 98.31689453 C-39.12232422 98.81189453 -39.12232422 98.81189453 -40.13232422 99.31689453 C-42.82245761 99.50393857 -45.42918599 99.40270844 -48.13232422 99.31689453 C-49.13232422 98.31689453 -49.13232422 98.31689453 -49.63232422 94.44189453 C-49.47244343 84.35341651 -41.04870589 76.79773064 -34.26904297 70.21533203 C-32.13232422 68.31689453 -32.13232422 68.31689453 -30.13232422 67.31689453 C-29.63732422 65.83189453 -29.63732422 65.83189453 -29.13232422 64.31689453 C-28.47232422 64.31689453 -27.81232422 64.31689453 -27.13232422 64.31689453 C-26.76107422 63.54345703 -26.76107422 63.54345703 -26.38232422 62.75439453 C-24.73393536 59.54003625 -23.01675748 56.39747514 -21.13232422 53.31689453 C-20.49294922 52.26501953 -19.85357422 51.21314453 -19.19482422 50.12939453 C-15.85276193 46.15074895 -10.73635336 45.41299167 -5.89794922 44.17626953 C-4.98529297 43.89267578 -4.07263672 43.60908203 -3.13232422 43.31689453 C-2.63732422 42.32689453 -2.63732422 42.32689453 -2.13232422 41.31689453 C-2.83099609 41.35169922 -3.52966797 41.38650391 -4.24951172 41.42236328 C-5.15958984 41.44943359 -6.06966797 41.47650391 -7.00732422 41.50439453 C-7.91224609 41.53919922 -8.81716797 41.57400391 -9.74951172 41.60986328 C-10.92900391 41.46484375 -10.92900391 41.46484375 -12.13232422 41.31689453 C-14.72524506 37.42751327 -14.54542159 34.3903365 -14.78857422 29.81298828 C-14.8996929 27.1468415 -14.8996929 27.1468415 -17.13232422 25.31689453 C-17.13232422 23.99689453 -17.13232422 22.67689453 -17.13232422 21.31689453 C-16.14232422 20.98689453 -15.15232422 20.65689453 -14.13232422 20.31689453 C-14.29603516 19.62208984 -14.45974609 18.92728516 -14.62841797 18.21142578 C-15.17328417 15.08161293 -15.22970904 12.1789137 -15.19482422 9.00439453 C-15.18580078 7.93576172 -15.17677734 6.86712891 -15.16748047 5.76611328 C-15.15587891 4.95787109 -15.14427734 4.14962891 -15.13232422 3.31689453 C-14.32794922 3.00751953 -13.52357422 2.69814453 -12.69482422 2.37939453 C-8.14348861 0.49225538 -5.25543806 0.01115804 0 0 Z M-9.13232422 12.31689453 C-9.13232422 12.97689453 -9.13232422 13.63689453 -9.13232422 14.31689453 C-8.47232422 13.98689453 -7.81232422 13.65689453 -7.13232422 13.31689453 C-7.79232422 12.98689453 -8.45232422 12.65689453 -9.13232422 12.31689453 Z " fill="#120F0C" transform="translate(206.13232421875,0.68310546875)"/>
<path d="M0 0 C0.85924072 0.22228271 1.71848145 0.44456543 2.60375977 0.67358398 C10.98604584 2.88492765 19.23547153 5.49119219 27.47558594 8.17724609 C30.70557507 9.22578187 33.94475438 10.24154175 37.1875 11.25 C38.19941406 11.56710938 39.21132812 11.88421875 40.25390625 12.2109375 C42.53559433 12.96489626 42.53559433 12.96489626 44.625 12.875 C42.315 11.885 40.005 10.895 37.625 9.875 C37.625 9.545 37.625 9.215 37.625 8.875 C44.73116979 8.17064396 51.00150787 9.23430681 57.8125 11.125 C58.55999512 11.32955811 59.30749023 11.53411621 60.07763672 11.74487305 C64.62619955 13.07074352 68.66155703 14.77467271 72.79418945 17.09667969 C74.90696265 18.13582453 74.90696265 18.13582453 78.625 17.875 C78.90698242 17.3402002 79.18896484 16.80540039 79.47949219 16.25439453 C80.76632538 13.82985746 82.07038154 11.41501001 83.375 9 C83.8184375 8.15824219 84.261875 7.31648438 84.71875 6.44921875 C85.15703125 5.64355469 85.5953125 4.83789062 86.046875 4.0078125 C86.44487305 3.26418457 86.84287109 2.52055664 87.25292969 1.75439453 C88.82371171 -0.39718554 90.18046309 -1.13900649 92.625 -2.125 C92.0887874 2.92627816 90.36042206 6.85768579 87.9375 11.25 C87.58026855 11.91193359 87.22303711 12.57386719 86.85498047 13.25585938 C84.50228472 17.5304312 81.87893748 21.35653399 78.8125 25.15625 C76.91224716 27.90661595 76.30207042 30.625062 75.625 33.875 C78.595 34.37 78.595 34.37 81.625 34.875 C81.625 35.205 81.625 35.535 81.625 35.875 C36.415 35.875 -8.795 35.875 -55.375 35.875 C-50.87698186 28.00346826 -50.87698186 28.00346826 -48.16796875 25.19140625 C-47.29325928 24.27101563 -47.29325928 24.27101563 -46.40087891 23.33203125 C-45.79421387 22.70683594 -45.18754883 22.08164063 -44.5625 21.4375 C-43.3023769 20.11684697 -42.0432501 18.79524255 -40.78515625 17.47265625 C-40.18977051 16.84891113 -39.59438477 16.22516602 -38.98095703 15.58251953 C-37.08645244 13.56820438 -35.28268481 11.48857758 -33.5 9.375 C-23.26018097 -2.47208176 -14.89629162 -3.98477666 0 0 Z " fill="#030201" transform="translate(131.375,97.125)"/>
<path d="M0 0 C6.38805472 0.12316887 10.74158922 1.30628346 15.34814453 5.74267578 C16.68017578 7.25439453 16.68017578 7.25439453 18.86767578 10.31689453 C19.79580078 11.43064453 19.79580078 11.43064453 20.74267578 12.56689453 C22.48972847 16.83746778 21.58839868 20.84493918 20.86767578 25.31689453 C22.51767578 25.64689453 24.16767578 25.97689453 25.86767578 26.31689453 C25.61767578 29.69189453 25.61767578 29.69189453 24.86767578 33.31689453 C22.99267578 34.50439453 22.99267578 34.50439453 20.86767578 35.31689453 C19.13341806 37.3500646 19.13341806 37.3500646 17.86767578 39.31689453 C16.54767578 38.98689453 15.22767578 38.65689453 13.86767578 38.31689453 C13.53767578 39.96689453 13.20767578 41.61689453 12.86767578 43.31689453 C14.13611328 42.77548828 14.13611328 42.77548828 15.43017578 42.22314453 C27.93056886 37.10934736 27.93056886 37.10934736 33.86767578 38.31689453 C46.81858804 46.06046082 61.93444161 66.67233842 67.86767578 80.31689453 C68.06298828 83.33251953 68.06298828 83.33251953 67.99267578 86.56689453 C67.97462891 87.64455078 67.95658203 88.72220703 67.93798828 89.83251953 C67.91478516 90.65236328 67.89158203 91.47220703 67.86767578 92.31689453 C66.54767578 92.64689453 65.22767578 92.97689453 63.86767578 93.31689453 C63.86767578 92.65689453 63.86767578 91.99689453 63.86767578 91.31689453 C61.22767578 91.31689453 58.58767578 91.31689453 55.86767578 91.31689453 C55.86767578 90.98689453 55.86767578 90.65689453 55.86767578 90.31689453 C58.83767578 90.31689453 61.80767578 90.31689453 64.86767578 90.31689453 C63.75518327 82.41819767 61.59876886 77.64993787 56.86767578 71.31689453 C55.57198543 69.46553738 54.28028904 67.61137835 52.99267578 65.75439453 C51.95202733 64.27451134 50.91073663 62.7950784 49.86767578 61.31689453 C45.67874035 61.96811559 41.86481838 62.8893436 37.86767578 64.31689453 C37.51240287 66.68258086 37.51240287 66.68258086 37.86767578 69.31689453 C39.6784064 71.15491363 39.6784064 71.15491363 42.11767578 72.50439453 C43.30103516 73.23722656 43.30103516 73.23722656 44.50830078 73.98486328 C46.60045114 75.16602764 48.70550557 76.27052317 50.86767578 77.31689453 C50.86767578 77.97689453 50.86767578 78.63689453 50.86767578 79.31689453 C47.18100576 79.52163454 43.49580835 79.64499284 39.80517578 79.75439453 C38.24766602 79.84237305 38.24766602 79.84237305 36.65869141 79.93212891 C28.98093417 80.10274573 28.98093417 80.10274573 25.6628418 77.76049805 C23.80517578 75.84814453 23.80517578 75.84814453 22.26611328 73.92431641 C20.86865254 72.03713897 20.86865254 72.03713897 17.93017578 71.37939453 C17.24955078 71.35876953 16.56892578 71.33814453 15.86767578 71.31689453 C16.19767578 71.97689453 16.52767578 72.63689453 16.86767578 73.31689453 C14.39267578 73.81189453 14.39267578 73.81189453 11.86767578 74.31689453 C11.86767578 74.97689453 11.86767578 75.63689453 11.86767578 76.31689453 C13.18767578 76.31689453 14.50767578 76.31689453 15.86767578 76.31689453 C15.53767578 76.97689453 15.20767578 77.63689453 14.86767578 78.31689453 C12.55767578 77.65689453 10.24767578 76.99689453 7.86767578 76.31689453 C7.74267578 72.94189453 7.74267578 72.94189453 7.86767578 69.31689453 C9.86767578 67.31689453 9.86767578 67.31689453 11.74267578 67.08642578 C12.44392578 67.10060547 13.14517578 67.11478516 13.86767578 67.12939453 C14.56892578 67.13583984 15.27017578 67.14228516 15.99267578 67.14892578 C17.86767578 67.31689453 17.86767578 67.31689453 19.86767578 68.31689453 C19.86767578 66.33689453 19.86767578 64.35689453 19.86767578 62.31689453 C18.46937358 62.74643835 17.07413671 63.18596487 15.68017578 63.62939453 C14.90287109 63.87302734 14.12556641 64.11666016 13.32470703 64.36767578 C9.34049399 65.88168516 9.34049399 65.88168516 5.86767578 68.31689453 C4.96160896 71.17665604 4.75824129 74.02202285 4.55517578 77.00439453 C4.48234375 77.80167969 4.40951172 78.59896484 4.33447266 79.42041016 C4.15808894 81.38414883 4.01011361 83.35040215 3.86767578 85.31689453 C2.87767578 85.31689453 1.88767578 85.31689453 0.86767578 85.31689453 C0.86767578 79.37689453 0.86767578 73.43689453 0.86767578 67.31689453 C-4.08232422 66.65689453 -9.03232422 65.99689453 -14.13232422 65.31689453 C-14.46232422 68.61689453 -14.79232422 71.91689453 -15.13232422 75.31689453 C-14.14232422 75.64689453 -13.15232422 75.97689453 -12.13232422 76.31689453 C-13.08107422 76.75001953 -14.02982422 77.18314453 -15.00732422 77.62939453 C-18.33274359 79.10991654 -18.33274359 79.10991654 -20.13232422 82.31689453 C-20.52246138 84.30659403 -20.86435071 86.30709322 -21.13232422 88.31689453 C-22.75732422 86.69189453 -22.75732422 86.69189453 -24.13232422 84.31689453 C-23.63232422 81.31689453 -23.63232422 81.31689453 -22.13232422 78.31689453 C-21.29185547 77.73294922 -20.45138672 77.14900391 -19.58544922 76.54736328 C-16.84278133 74.49116006 -16.84278133 74.49116006 -16.46044922 71.11767578 C-16.43466797 69.96654297 -16.40888672 68.81541016 -16.38232422 67.62939453 C-16.18743329 61.3720036 -16.18743329 61.3720036 -15.13232422 60.31689453 C-7.83820657 60.08160041 -7.83820657 60.08160041 -4.13232422 61.31689453 C-4.13232422 57.68689453 -4.13232422 54.05689453 -4.13232422 50.31689453 C-3.80232422 50.31689453 -3.47232422 50.31689453 -3.13232422 50.31689453 C-2.80232422 52.62689453 -2.47232422 54.93689453 -2.13232422 57.31689453 C0.61071474 57.9885616 0.61071474 57.9885616 3.86767578 57.31689453 C7.55490857 53.98567043 9.57509121 50.39580016 10.86767578 45.62939453 C10.86767578 42.16949506 10.23900859 40.44048593 8.86767578 37.31689453 C8.64347836 35.94739945 8.45842439 34.57113204 8.30517578 33.19189453 C8.01407422 29.4097596 8.01407422 29.4097596 6.86767578 26.31689453 C6.20767578 26.31689453 5.54767578 26.31689453 4.86767578 26.31689453 C5.86545158 23.32356714 6.61987828 22.36923138 8.86767578 20.31689453 C5.84348053 20.9049325 2.85009125 21.54367571 -0.13232422 22.31689453 C-0.13232422 21.32689453 -0.13232422 20.33689453 -0.13232422 19.31689453 C-4.42232422 19.31689453 -8.71232422 19.31689453 -13.13232422 19.31689453 C-15.18511781 15.21130735 -15.35401842 13.51482768 -15.25732422 9.06689453 C-15.23927734 7.98923828 -15.22123047 6.91158203 -15.20263672 5.80126953 C-15.16783203 4.57150391 -15.16783203 4.57150391 -15.13232422 3.31689453 C-14.32794922 3.00751953 -13.52357422 2.69814453 -12.69482422 2.37939453 C-8.14348861 0.49225538 -5.25543806 0.01115804 0 0 Z M-9.13232422 12.31689453 C-9.13232422 12.97689453 -9.13232422 13.63689453 -9.13232422 14.31689453 C-8.47232422 13.98689453 -7.81232422 13.65689453 -7.13232422 13.31689453 C-7.79232422 12.98689453 -8.45232422 12.65689453 -9.13232422 12.31689453 Z " fill="#140D0C" transform="translate(206.13232421875,0.68310546875)"/>
<path d="M0 0 C1.17046875 0.01804687 2.3409375 0.03609375 3.546875 0.0546875 C4.88492188 0.08949219 4.88492188 0.08949219 6.25 0.125 C6.25 1.115 6.25 2.105 6.25 3.125 C7.1575 2.609375 8.065 2.09375 9 1.5625 C12.25 0.125 12.25 0.125 14.625 0.4375 C15.16125 0.664375 15.6975 0.89125 16.25 1.125 C14.6 3.105 12.95 5.085 11.25 7.125 C11.91 7.125 12.57 7.125 13.25 7.125 C15.59216688 10.63825032 16.06592606 13.4064172 16.78515625 17.5078125 C17.20079971 20.0559499 17.20079971 20.0559499 17.80859375 22.2421875 C18.53057597 25.42402065 18.49584851 27.63091611 17.04296875 30.55078125 C14.99407625 33.67646397 12.89396377 36.48103623 10.25 39.125 C7.1875 39.3125 7.1875 39.3125 4.25 39.125 C3.92 38.795 3.59 38.465 3.25 38.125 C2.92 39.445 2.59 40.765 2.25 42.125 C-1.38 42.125 -5.01 42.125 -8.75 42.125 C-8.76417969 43.01703125 -8.77835938 43.9090625 -8.79296875 44.828125 C-8.84066406 45.99859375 -8.88835937 47.1690625 -8.9375 48.375 C-8.97230469 49.53515625 -9.00710937 50.6953125 -9.04296875 51.890625 C-9.93242291 55.95950923 -11.40117311 56.80855686 -14.75 59.125 C-16.47620879 61.96874655 -16.47620879 61.96874655 -16.75 65.125 C-15.00590249 68.0150216 -15.00590249 68.0150216 -12.75 70.125 C-14.73 71.115 -14.73 71.115 -16.75 72.125 C-12.09906797 73.35645245 -7.82965419 74.24919251 -3 74.0625 C0.9887409 73.93785185 2.87394248 74.96807436 6.25 77.125 C10.57757619 76.76991683 13.38767863 74.95971907 16.9375 72.5625 C22.04879276 69.125 22.04879276 69.125 24.25 69.125 C20.57933695 78.63063215 15.63404815 87.49524907 10.25 96.125 C6.57099219 95.74766587 3.61052257 94.90529499 0.3125 93.3125 C-8.77934798 89.11271235 -18.71530202 86.42081067 -28.75 87.125 C-26.44 88.115 -24.13 89.105 -21.75 90.125 C-26.18532042 91.52811604 -29.53701026 90.23253215 -33.8125 88.8125 C-34.89241211 88.4731543 -34.89241211 88.4731543 -35.99414062 88.12695312 C-39.25498178 87.07633857 -41.88372582 86.03584946 -44.75 84.125 C-41.28058454 84.58322468 -38.07604951 85.01631683 -34.75 86.125 C-34.440625 85.34125 -34.13125 84.5575 -33.8125 83.75 C-32.75 81.125 -32.75 81.125 -31.75 79.125 C-32.74 79.62 -32.74 79.62 -33.75 80.125 C-36.44013339 80.31204404 -39.04686177 80.21081391 -41.75 80.125 C-42.75 79.125 -42.75 79.125 -43.25 75.25 C-43.09011921 65.16152198 -34.66638167 57.60583611 -27.88671875 51.0234375 C-25.75 49.125 -25.75 49.125 -23.75 48.125 C-23.42 47.135 -23.09 46.145 -22.75 45.125 C-22.09 45.125 -21.43 45.125 -20.75 45.125 C-20.5025 44.609375 -20.255 44.09375 -20 43.5625 C-18.35161114 40.34814172 -16.63443326 37.20558061 -14.75 34.125 C-13.7909375 32.5471875 -13.7909375 32.5471875 -12.8125 30.9375 C-9.47043771 26.95885442 -4.35402915 26.22109714 0.484375 24.984375 C1.39703125 24.70078125 2.3096875 24.4171875 3.25 24.125 C3.58 23.465 3.91 22.805 4.25 22.125 C3.55132812 22.15980469 2.85265625 22.19460937 2.1328125 22.23046875 C1.22273438 22.25753906 0.31265625 22.28460938 -0.625 22.3125 C-1.52992188 22.34730469 -2.43484375 22.38210937 -3.3671875 22.41796875 C-4.54667969 22.27294922 -4.54667969 22.27294922 -5.75 22.125 C-8.34292084 18.23561874 -8.16309737 15.19844197 -8.40625 10.62109375 C-8.51736868 7.95494697 -8.51736868 7.95494697 -10.75 6.125 C-10.75 4.805 -10.75 3.485 -10.75 2.125 C-7.15537669 -0.13498595 -4.18404325 -0.08368087 0 0 Z " fill="#1B1511" transform="translate(199.75,19.875)"/>
<path d="M0 0 C6.38805472 0.12316887 10.74158922 1.30628346 15.34814453 5.74267578 C16.68017578 7.25439453 16.68017578 7.25439453 18.86767578 10.31689453 C19.79580078 11.43064453 19.79580078 11.43064453 20.74267578 12.56689453 C22.48972847 16.83746778 21.58839868 20.84493918 20.86767578 25.31689453 C22.51767578 25.64689453 24.16767578 25.97689453 25.86767578 26.31689453 C25.61767578 29.69189453 25.61767578 29.69189453 24.86767578 33.31689453 C22.99267578 34.50439453 22.99267578 34.50439453 20.86767578 35.31689453 C19.13341806 37.3500646 19.13341806 37.3500646 17.86767578 39.31689453 C16.54767578 38.98689453 15.22767578 38.65689453 13.86767578 38.31689453 C13.86767578 37.65689453 13.86767578 36.99689453 13.86767578 36.31689453 C13.20767578 36.31689453 12.54767578 36.31689453 11.86767578 36.31689453 C11.86767578 37.96689453 11.86767578 39.61689453 11.86767578 41.31689453 C8.31040618 37.60496103 8.33718744 34.24676695 7.86767578 29.31689453 C7.53767578 28.32689453 7.20767578 27.33689453 6.86767578 26.31689453 C6.20767578 26.31689453 5.54767578 26.31689453 4.86767578 26.31689453 C5.86545158 23.32356714 6.61987828 22.36923138 8.86767578 20.31689453 C5.84348053 20.9049325 2.85009125 21.54367571 -0.13232422 22.31689453 C-0.13232422 21.32689453 -0.13232422 20.33689453 -0.13232422 19.31689453 C-4.42232422 19.31689453 -8.71232422 19.31689453 -13.13232422 19.31689453 C-15.18511781 15.21130735 -15.35401842 13.51482768 -15.25732422 9.06689453 C-15.23927734 7.98923828 -15.22123047 6.91158203 -15.20263672 5.80126953 C-15.17943359 4.98142578 -15.15623047 4.16158203 -15.13232422 3.31689453 C-14.32794922 3.00751953 -13.52357422 2.69814453 -12.69482422 2.37939453 C-8.14348861 0.49225538 -5.25543806 0.01115804 0 0 Z M-9.13232422 12.31689453 C-9.13232422 12.97689453 -9.13232422 13.63689453 -9.13232422 14.31689453 C-8.47232422 13.98689453 -7.81232422 13.65689453 -7.13232422 13.31689453 C-7.79232422 12.98689453 -8.45232422 12.65689453 -9.13232422 12.31689453 Z " fill="#030202" transform="translate(206.13232421875,0.68310546875)"/>
<path d="M0 0 C-3.67066305 9.50563215 -8.61595185 18.37024907 -14 27 C-17.67900781 26.62266587 -20.63947743 25.78029499 -23.9375 24.1875 C-33.02934798 19.98771235 -42.96530202 17.29581067 -53 18 C-50.69 18.99 -48.38 19.98 -46 21 C-50.43532042 22.40311604 -53.78701026 21.10753215 -58.0625 19.6875 C-59.14241211 19.3481543 -59.14241211 19.3481543 -60.24414062 19.00195312 C-63.50498178 17.95133857 -66.13372582 16.91084946 -69 15 C-65.53058454 15.45822468 -62.32604951 15.89131683 -59 17 C-58.67 16.34 -58.34 15.68 -58 15 C-58 15.66 -58 16.32 -58 17 C-57.34 17 -56.68 17 -56 17 C-55.91105469 16.42765625 -55.82210937 15.8553125 -55.73046875 15.265625 C-54.43866766 11.2589692 -51.88967655 9.20181313 -48.6328125 6.65234375 C-41.03248409 3.19542018 -31.16521646 3.6463708 -23 5 C-21.305776 5.95256644 -19.629438 6.9404201 -18 8 C-13.68060885 7.84205724 -10.83010102 5.81296044 -7.3125 3.4375 C-2.20120724 0 -2.20120724 0 0 0 Z " fill="#EF5472" transform="translate(224,89)"/>
<path d="M0 0 C3.12766056 3.32050283 5.49691654 7.19414211 8 11 C8.60972656 11.88171875 9.21945312 12.7634375 9.84765625 13.671875 C13.39232689 19.0684894 14.71757567 22.54181894 14 29 C5.16574795 29.8296515 -1.38500101 28.41653118 -9.46166992 25.20898438 C-15.92652436 22.75617039 -21.73391351 22.35668369 -28.609375 22.3984375 C-32.57640039 21.93226631 -34.16633635 20.73632406 -37 18 C-36.34 17.01 -35.68 16.02 -35 15 C-36.32 15 -37.64 15 -39 15 C-39 14.34 -39 13.68 -39 13 C-37.68 12.34 -36.36 11.68 -35 11 C-35.33 10.34 -35.66 9.68 -36 9 C-33.4375 9.0625 -33.4375 9.0625 -30 10 C-28.97016286 11.13129208 -27.98438978 12.30337522 -27.03125 13.5 C-23.08805375 17.58937591 -19.73704382 17.84785736 -14.20898438 17.97070312 C-13.17064453 17.95974609 -12.13230469 17.94878906 -11.0625 17.9375 C-9.46438477 17.96166992 -9.46438477 17.96166992 -7.83398438 17.98632812 C-5.22133452 18.02147588 -2.61264818 18.02519214 0 18 C-1.45178675 15.09642651 -3.58500513 14.48374246 -6.4375 13 C-11.79291553 10.20708447 -11.79291553 10.20708447 -14 8 C-14.125 5.375 -14.125 5.375 -14 3 C-12.61256594 2.29570341 -11.21455365 1.61222402 -9.8125 0.9375 C-9.03519531 0.55464844 -8.25789063 0.17179687 -7.45703125 -0.22265625 C-4.42153818 -1.18301097 -2.97678554 -1.13174914 0 0 Z " fill="#F1D4A7" transform="translate(257,62)"/>
<path d="M0 0 C4.21424648 3.76592239 7.54834276 8.11759291 10.9375 12.625 C8.27972951 15.28277049 5.39445173 16.19453721 1.9375 17.625 C0.885625 18.181875 0.885625 18.181875 -0.1875 18.75 C-2.0625 19.625 -2.0625 19.625 -4.625 19.75 C-7.18619646 20.36191645 -7.18619646 20.36191645 -8.046875 22.46484375 C-8.80593735 24.50213845 -9.47606509 26.53195181 -10.0625 28.625 C-11.0525 28.295 -12.0425 27.965 -13.0625 27.625 C-13.0625 23.335 -13.0625 19.045 -13.0625 14.625 C-20.54366133 14.90730797 -25.71324114 17.80844183 -32.0625 21.625 C-32.3925 20.635 -32.7225 19.645 -33.0625 18.625 C-32.340625 17.965 -31.61875 17.305 -30.875 16.625 C-26.99488543 12.74488543 -23.70436043 8.08546499 -22.3125 2.75 C-21.0625 0.625 -21.0625 0.625 -19.26171875 -0.12109375 C-12.87848345 -1.71965872 -6.11972804 -2.747633 0 0 Z " fill="#F55273" transform="translate(242.0625,44.375)"/>
<path d="M0 0 C2.64 0 5.28 0 8 0 C8 0.99 8 1.98 8 3 C9.36125 2.2265625 9.36125 2.2265625 10.75 1.4375 C14 0 14 0 16.375 0.3125 C16.91125 0.539375 17.4475 0.76625 18 1 C16.35 2.98 14.7 4.96 13 7 C13.66 7 14.32 7 15 7 C17.34216688 10.51325032 17.81592606 13.2814172 18.53515625 17.3828125 C18.95079971 19.9309499 18.95079971 19.9309499 19.55859375 22.1171875 C20.28057597 25.29902065 20.24584851 27.50591611 18.79296875 30.42578125 C16.74407625 33.55146397 14.64396377 36.35603623 12 39 C8.875 39.125 8.875 39.125 6 39 C6.11455681 37.08268082 6.24206258 35.1661325 6.375 33.25 C6.47941406 31.64898437 6.47941406 31.64898437 6.5859375 30.015625 C6.97860495 27.15582053 7.69956991 25.51416485 9 23 C8.69196545 19.81477796 8.69196545 19.81477796 8 17 C7.01 17.33 6.02 17.66 5 18 C3.43881572 18.06740865 1.8749748 18.08514456 0.3125 18.0625 C-0.89986328 18.04896484 -0.89986328 18.04896484 -2.13671875 18.03515625 C-2.75160156 18.02355469 -3.36648437 18.01195313 -4 18 C-4 16.68 -4 15.36 -4 14 C-2.68 13.67 -1.36 13.34 0 13 C-1.32 12.67 -2.64 12.34 -4 12 C-4.12375 11.195625 -4.2475 10.39125 -4.375 9.5625 C-4.684375 8.2940625 -4.684375 8.2940625 -5 7 C-5.66 6.67 -6.32 6.34 -7 6 C-7 5.34 -7 4.68 -7 4 C-6.01 3.67 -5.02 3.34 -4 3 C-3.34 2.34 -2.68 1.68 -2 1 C-1.67 1.66 -1.34 2.32 -1 3 C-0.67 2.01 -0.34 1.02 0 0 Z " fill="#F2D5A8" transform="translate(198,20)"/>
<path d="M0 0 C0.66 0.33 1.32 0.66 2 1 C1.67 2.98 1.34 4.96 1 7 C1.845625 6.6390625 2.69125 6.278125 3.5625 5.90625 C16.06289308 0.79245283 16.06289308 0.79245283 22 2 C34.95091226 9.74356629 50.06676583 30.35544389 56 44 C56.1953125 47.015625 56.1953125 47.015625 56.125 50.25 C56.10695313 51.32765625 56.08890625 52.4053125 56.0703125 53.515625 C56.04710937 54.33546875 56.02390625 55.1553125 56 56 C54.02 56.495 54.02 56.495 52 57 C52 56.34 52 55.68 52 55 C49.36 55 46.72 55 44 55 C44 54.67 44 54.34 44 54 C46.97 54 49.94 54 53 54 C51.88750748 46.10130314 49.73109308 41.33304334 45 35 C43.70430965 33.14864284 42.41261325 31.29448382 41.125 29.4375 C40.08435154 27.95761681 39.04306085 26.47818387 38 25 C33.81106456 25.65122106 29.9971426 26.57244907 26 28 C25.58129447 30.33071879 25.58129447 30.33071879 26 33 C28.39859044 35.33630748 28.39859044 35.33630748 31 37 C30.01 37 29.02 37 28 37 C28 37.66 28 38.32 28 39 C26.7934375 38.7215625 26.7934375 38.7215625 25.5625 38.4375 C24.716875 38.293125 23.87125 38.14875 23 38 C22.67 38.33 22.34 38.66 22 39 C20.00041636 39.04080783 17.99954746 39.04254356 16 39 C16.020625 38.071875 16.04125 37.14375 16.0625 36.1875 C16.15769604 32.97713989 16.15769604 32.97713989 15 30 C16.0625 27.8125 16.0625 27.8125 18 26 C20 26 22 26 24 26 C26.59855425 24.15449966 26.59855425 24.15449966 29 22 C30.65079481 21.29494772 32.31614934 20.6219881 34 20 C32.78115393 18.38797778 31.54943515 16.78568423 30.3125 15.1875 C29.62800781 14.29417969 28.94351563 13.40085937 28.23828125 12.48046875 C25.48234503 9.4263335 22.98427167 7.33674683 18.859375 6.63671875 C12.28480784 6.79499537 6.23771713 7.92076096 0 10 C-0.95024979 6.30458414 -0.95024979 3.69541586 0 0 Z " fill="#181310" transform="translate(218,37)"/>
<path d="M0 0 C0 1.98 0 3.96 0 6 C-3.3 6 -6.6 6 -10 6 C-10.81336659 9.25346636 -11.47366023 12.45249731 -12.0625 15.75 C-12.23910156 16.73484375 -12.41570312 17.7196875 -12.59765625 18.734375 C-12.73042969 19.48203125 -12.86320312 20.2296875 -13 21 C-12.34 21 -11.68 21 -11 21 C-11 21.99 -11 22.98 -11 24 C-10.34 24.33 -9.68 24.66 -9 25 C-11.17279182 27.27845951 -13.33597329 29.30847236 -16 31 C-20.37893749 31 -22.36159634 30.42560244 -26 28 C-26.28599501 25.99803494 -26.56690348 23.99111019 -26.69140625 21.97265625 C-26.90828639 19.68318072 -26.90828639 19.68318072 -29 17 C-27.35 16.67 -25.7 16.34 -24 16 C-24.66 14.68 -25.32 13.36 -26 12 C-28.64 12 -31.28 12 -34 12 C-34 9.03 -34 6.06 -34 3 C-27.71797022 2.80670678 -24.33431168 3.19019666 -18 5 C-18.33 10.94 -18.66 16.88 -19 23 C-18.01 23 -17.02 23 -16 23 C-16.01160156 22.35933594 -16.02320313 21.71867187 -16.03515625 21.05859375 C-16.06319467 18.37091135 -16.03536222 15.68752889 -16 13 C-16 11.741875 -16 10.48375 -16 9.1875 C-14.67889796 4.97648725 -12.67033077 4.006243 -8.91015625 1.9453125 C-8.27980469 1.63335937 -7.64945313 1.32140625 -7 1 C-4.53721199 -0.231394 -2.7204945 -0.07159196 0 0 Z " fill="#F1D4A7" transform="translate(226,63)"/>
<path d="M0 0 C1.3659753 2.73195059 0.66975698 3.95287453 -0.109375 6.8828125 C-0.36823486 7.87829102 -0.62709473 8.87376953 -0.89379883 9.89941406 C-1.17634521 10.96385742 -1.4588916 12.02830078 -1.75 13.125 C-3.96775736 21.69921968 -5.93861113 30.2291112 -7.45703125 38.953125 C-7.88274066 41.34199795 -8.36850292 43.65940533 -9 46 C-10.43791516 45.85831863 -11.8753237 45.71148957 -13.3125 45.5625 C-14.11300781 45.48128906 -14.91351563 45.40007812 -15.73828125 45.31640625 C-18 45 -18 45 -21 44 C-21 38.85840499 -19.67094328 36.28288619 -16.5 32.25 C-9.10520314 22.65675002 -4.69999597 11.09021131 0 0 Z " fill="#F0D3A7" transform="translate(228,87)"/>
<path d="M0 0 C0.85842249 9.65248396 0.85842249 9.65248396 -2 13.5625 C-5.88536967 16.71936286 -8.07033929 16.83289286 -13 17 C-13 17.99 -13 18.98 -13 20 C-12.12988281 19.80083984 -12.12988281 19.80083984 -11.2421875 19.59765625 C-6.84229018 18.60295999 -2.46105842 17.68631668 2 17 C1.81640625 19.36328125 1.81640625 19.36328125 1 22 C-1.22265625 23.29296875 -1.22265625 23.29296875 -4.0625 24.1875 C-5.05507812 24.50589844 -6.04765625 24.82429688 -7.0703125 25.15234375 C-8.03710938 25.43207031 -9.00390625 25.71179688 -10 26 C-11.17175781 26.34224609 -11.17175781 26.34224609 -12.3671875 26.69140625 C-15.71382078 27.59436579 -18.51108366 28 -22 28 C-20.57617799 19.07015981 -14.17737585 12.88160892 -8.25 6.4375 C-7.67088867 5.80529541 -7.09177734 5.17309082 -6.49511719 4.52172852 C-2.25005156 0 -2.25005156 0 0 0 Z " fill="#F1D4A7" transform="translate(181,69)"/>
<path d="M0 0 C0 3.63 0 7.26 0 11 C-3.3 11.33 -6.6 11.66 -10 12 C-9.98646484 13.32064453 -9.98646484 13.32064453 -9.97265625 14.66796875 C-10.21193464 24.04143973 -10.21193464 24.04143973 -12.625 26.9765625 C-14.5625 28.3125 -14.5625 28.3125 -18 30 C-18.35050464 24.158256 -18.16727335 20.1468192 -15 15 C-15.33 14.67 -15.66 14.34 -16 14 C-16.99 15.485 -16.99 15.485 -18 17 C-18.66 17 -19.32 17 -20 17 C-19.40292354 13.15910519 -17.61096056 10.91849138 -15.1875 7.9375 C-14.15689453 6.65166016 -14.15689453 6.65166016 -13.10546875 5.33984375 C-8.80880219 0.56488406 -6.50653765 -0.37537717 0 0 Z " fill="#EE5070" transform="translate(201,50)"/>
<path d="M0 0 C0.99 0 1.98 0 3 0 C3.07347656 0.95712891 3.07347656 0.95712891 3.1484375 1.93359375 C3.22320312 2.75988281 3.29796875 3.58617188 3.375 4.4375 C3.44460937 5.26121094 3.51421875 6.08492188 3.5859375 6.93359375 C3.72257813 7.61550781 3.85921875 8.29742187 4 9 C4.66 9.33 5.32 9.66 6 10 C6.66 8.68 7.32 7.36 8 6 C9 9 9 9 8 13 C10.64 12.34 13.28 11.68 16 11 C16 11.66 16 12.32 16 13 C17.32 13 18.64 13 20 13 C20 12.34 20 11.68 20 11 C24.35522853 11.50642192 27.44239635 12.38411497 31 15 C31 15.66 31 16.32 31 17 C27.31332998 17.20474001 23.62813257 17.32809831 19.9375 17.4375 C18.89916016 17.49615234 17.86082031 17.55480469 16.79101562 17.61523438 C9.11325839 17.7858512 9.11325839 17.7858512 5.79516602 15.44360352 C3.9375 13.53125 3.9375 13.53125 2.3984375 11.60742188 C1.00097675 9.72024443 1.00097675 9.72024443 -1.9375 9.0625 C-2.618125 9.041875 -3.29875 9.02125 -4 9 C-3.67 9.66 -3.34 10.32 -3 11 C-4.65 11.33 -6.3 11.66 -8 12 C-8 12.66 -8 13.32 -8 14 C-6.68 14 -5.36 14 -4 14 C-4.33 14.66 -4.66 15.32 -5 16 C-7.31 15.34 -9.62 14.68 -12 14 C-12.125 10.625 -12.125 10.625 -12 7 C-10 5 -10 5 -8.125 4.76953125 C-7.42375 4.78371094 -6.7225 4.79789062 -6 4.8125 C-4.948125 4.82216797 -4.948125 4.82216797 -3.875 4.83203125 C-2 5 -2 5 0 6 C0 4.02 0 2.04 0 0 Z " fill="#171310" transform="translate(226,63)"/>
<path d="M0 0 C0.33 0 0.66 0 1 0 C1 1.98 1 3.96 1 6 C2.27875 5.79375 3.5575 5.5875 4.875 5.375 C7.0546875 5.0234375 7.0546875 5.0234375 9 5 C11 7 11 7 11 10 C9.02 10.99 9.02 10.99 7 12 C7.66 12.66 8.32 13.32 9 14 C9.26991906 16.68839385 9.08737357 19.29141936 9 22 C8.01 21.67 7.02 21.34 6 21 C5.67 21.99 5.34 22.98 5 24 C3.53890937 23.74445946 2.08111904 23.46999628 0.625 23.1875 C-0.18710938 23.03667969 -0.99921875 22.88585937 -1.8359375 22.73046875 C-4 22 -4 22 -6 19 C-5.91787926 14.56548025 -5.65957851 12.64349123 -2.4375 9.5 C0.39753182 7.12350725 0.39753182 7.12350725 0.3125 3.1875 C0.209375 2.135625 0.10625 1.08375 0 0 Z " fill="#231E18" transform="translate(191,69)"/>
<path d="M0 0 C1.65 0 3.3 0 5 0 C4.35820237 6.16125726 3.12832096 11.99615706 1.625 18 C-0.5680626 26.95560089 -2.41967363 35.91633541 -4 45 C-5.32 45 -6.64 45 -8 45 C-8.22095168 39.30858937 -7.41609281 34.23580523 -6.1875 28.6875 C-6.00662842 27.84590332 -5.82575684 27.00430664 -5.6394043 26.13720703 C-4.52494546 21.05503876 -3.19759795 16.10725889 -1.59375 11.15625 C-0.58060874 7.47694752 -0.30619684 3.79684086 0 0 Z " fill="#EFD2A6" transform="translate(231,88)"/>
<path d="M0 0 C-0.33 1.32 -0.66 2.64 -1 4 C-3 4 -5 4 -7 4 C-7 4.66 -7 5.32 -7 6 C-6.01 6.33 -5.02 6.66 -4 7 C-4 8.65 -4 10.3 -4 12 C-2.35 12 -0.7 12 1 12 C0.67 12.66 0.34 13.32 0 14 C-1.32 14 -2.64 14 -4 14 C-4 15.32 -4 16.64 -4 18 C-0.04 17.67 3.92 17.34 8 17 C9.7578125 23.0546875 9.7578125 23.0546875 10 25 C9.34 25.66 8.68 26.32 8 27 C7.39053267 29.52363913 7.39053267 29.52363913 7 32.375 C6.45612771 35.97815391 5.80801987 38.82089839 4 42 C3.01 41.67 2.02 41.34 1 41 C1.66 41 2.32 41 3 41 C3 37.37 3 33.74 3 30 C2.34 29.67 1.68 29.34 1 29 C1.33 28.67 1.66 28.34 2 28 C1.34 27.34 0.68 26.68 0 26 C0.804375 25.71125 1.60875 25.4225 2.4375 25.125 C5.1326468 24.26737432 5.1326468 24.26737432 6 22 C5.30132812 22.03480469 4.60265625 22.06960937 3.8828125 22.10546875 C2.97273437 22.13253906 2.06265625 22.15960938 1.125 22.1875 C0.22007812 22.22230469 -0.68484375 22.25710937 -1.6171875 22.29296875 C-2.79667969 22.14794922 -2.79667969 22.14794922 -4 22 C-6.59292084 18.11061874 -6.41309737 15.07344197 -6.65625 10.49609375 C-6.76736868 7.82994697 -6.76736868 7.82994697 -9 6 C-9 4.68 -9 3.36 -9 2 C-5.86501708 0.14223235 -3.62528568 -0.20140476 0 0 Z " fill="#15130E" transform="translate(198,20)"/>
<path d="M0 0 C-0.62410899 6.39550858 -1.62373981 12.58789255 -2.9375 18.875 C-3.29629612 20.62745626 -3.65437407 22.38005971 -4.01171875 24.1328125 C-4.1823584 24.9671582 -4.35299805 25.80150391 -4.52880859 26.66113281 C-5.42201036 31.09474575 -6.22338398 35.54467653 -7 40 C-8.32 40 -9.64 40 -11 40 C-10.1222401 30.7376679 -8.6655388 21.75102501 -6.5625 12.6875 C-6.35729736 11.77460205 -6.15209473 10.8617041 -5.94067383 9.92114258 C-5.63166138 8.63566528 -5.63166138 8.63566528 -5.31640625 7.32421875 C-5.13537354 6.56197998 -4.95434082 5.79974121 -4.76782227 5.0144043 C-3.96930076 2.91945964 -2.57766361 0 0 0 Z " fill="#171410" transform="translate(238,93)"/>
<path d="M0 0 C2.3125 0.25 2.3125 0.25 4 1 C3.01 1.33 2.02 1.66 1 2 C1.66 2.66 2.32 3.32 3 4 C1.02 4.66 -0.96 5.32 -3 6 C-3.41870553 8.33071879 -3.41870553 8.33071879 -3 11 C-0.60140956 13.33630748 -0.60140956 13.33630748 2 15 C1.01 15 0.02 15 -1 15 C-1 15.66 -1 16.32 -1 17 C-1.804375 16.814375 -2.60875 16.62875 -3.4375 16.4375 C-4.283125 16.293125 -5.12875 16.14875 -6 16 C-6.33 16.33 -6.66 16.66 -7 17 C-8.99958364 17.04080783 -11.00045254 17.04254356 -13 17 C-12.979375 16.071875 -12.95875 15.14375 -12.9375 14.1875 C-12.84230396 10.97713989 -12.84230396 10.97713989 -14 8 C-12.9375 5.8125 -12.9375 5.8125 -11 4 C-9 4 -7 4 -5 4 C-3.321702 2.68133728 -1.65385233 1.34919532 0 0 Z " fill="#231514" transform="translate(247,59)"/>
<path d="M0 0 C1.39651972 4.44603775 0.09318568 7.8129823 -1.25 12.125 C-3.97625887 21.31747078 -5.62211697 30.52285329 -7 40 C-8.32 40 -9.64 40 -11 40 C-10.18359763 33.90249476 -9.10671859 27.8633636 -8 21.8125 C-7.82210937 20.82830078 -7.64421875 19.84410156 -7.4609375 18.83007812 C-7.28820312 17.88197266 -7.11546875 16.93386719 -6.9375 15.95703125 C-6.70353516 14.67276245 -6.70353516 14.67276245 -6.46484375 13.36254883 C-6.0431346 11.21922978 -5.55184825 9.11307823 -5 7 C-4.34 7 -3.68 7 -3 7 C-2.87625 6.401875 -2.7525 5.80375 -2.625 5.1875 C-2 3 -2 3 0 0 Z " fill="#1E1A14" transform="translate(230,93)"/>
<path d="M0 0 C0.45758836 5.14532689 0.60761959 8.86577676 -1.875 13.5 C-4.93462428 16.63016317 -8.58787878 17.08946436 -12.79296875 17.67578125 C-15.03618479 17.88789811 -15.03618479 17.88789811 -17 19 C-15.48452117 13.78555639 -12.146898 10.52821363 -8.5 6.6875 C-7.90574219 6.04232422 -7.31148437 5.39714844 -6.69921875 4.73242188 C-2.26226025 0 -2.26226025 0 0 0 Z " fill="#F1D4A7" transform="translate(181,69)"/>
<path d="M0 0 C0.99 0 1.98 0 3 0 C3.07347656 0.95712891 3.07347656 0.95712891 3.1484375 1.93359375 C3.22320312 2.75988281 3.29796875 3.58617188 3.375 4.4375 C3.44460937 5.26121094 3.51421875 6.08492188 3.5859375 6.93359375 C3.72257813 7.61550781 3.85921875 8.29742187 4 9 C4.66 9.33 5.32 9.66 6 10 C5.67 10.99 5.34 11.98 5 13 C4.071875 12.34 3.14375 11.68 2.1875 11 C-0.79636556 8.73425446 -0.79636556 8.73425446 -4 9 C-3.67 9.66 -3.34 10.32 -3 11 C-4.65 11.33 -6.3 11.66 -8 12 C-8 12.66 -8 13.32 -8 14 C-6.68 14 -5.36 14 -4 14 C-4.33 14.66 -4.66 15.32 -5 16 C-7.31 15.34 -9.62 14.68 -12 14 C-12.125 10.625 -12.125 10.625 -12 7 C-10 5 -10 5 -8.125 4.76953125 C-7.42375 4.78371094 -6.7225 4.79789062 -6 4.8125 C-4.948125 4.82216797 -4.948125 4.82216797 -3.875 4.83203125 C-2 5 -2 5 0 6 C0 4.02 0 2.04 0 0 Z " fill="#1B1813" transform="translate(226,63)"/>
<path d="M0 0 C-0.99 0.66 -1.98 1.32 -3 2 C-4.01868662 2.98095748 -5.02351983 3.97702078 -6 5 C-4.35 5 -2.7 5 -1 5 C-0.67 5.99 -0.34 6.98 0 8 C-2.31 8 -4.62 8 -7 8 C-6.67 8.66 -6.34 9.32 -6 10 C-5.01 10.33 -4.02 10.66 -3 11 C-3 11.99 -3 12.98 -3 14 C-2.34 14 -1.68 14 -1 14 C-1 14.66 -1 15.32 -1 16 C-2.46109063 15.74445946 -3.91888096 15.46999628 -5.375 15.1875 C-6.59316406 14.96126953 -6.59316406 14.96126953 -7.8359375 14.73046875 C-10 14 -10 14 -12 11 C-11.92390846 6.81496505 -11.63863176 4.71161825 -8.8125 1.5625 C-5.58823227 -0.22875985 -3.63195497 -0.33785628 0 0 Z " fill="#E6CAA0" transform="translate(197,77)"/>
<path d="M0 0 C1.65 0 3.3 0 5 0 C4.37392048 5.79947349 3.32599062 11.33809831 1.9375 17 C1.75123047 17.77472656 1.56496094 18.54945312 1.37304688 19.34765625 C0.91923822 21.23270759 0.46017508 23.1164927 0 25 C-0.33 25 -0.66 25 -1 25 C-1 23.35 -1 21.7 -1 20 C-1.66 20 -2.32 20 -3 20 C-3.33 20.99 -3.66 21.98 -4 23 C-3.56239354 19.42621393 -3.02425452 16.08185901 -2 12.625 C-0.84049154 8.42178184 -0.37330454 4.33229748 0 0 Z " fill="#E0C59B" transform="translate(231,88)"/>
<path d="M0 0 C0 1.98 0 3.96 0 6 C-3.3 6 -6.6 6 -10 6 C-10.70982076 8.83928302 -11.2271044 11.37518059 -11.5625 14.25 C-11.706875 15.4875 -11.85125 16.725 -12 18 C-12.66 17.34 -13.32 16.68 -14 16 C-14.33 17.65 -14.66 19.3 -15 21 C-15.33 21 -15.66 21 -16 21 C-16.04691007 18.32612583 -16.04219807 15.67254473 -16 13 C-16 11.783125 -16 10.56625 -16 9.3125 C-14.69272675 4.98215737 -12.75606316 4.05323244 -8.91015625 1.9453125 C-8.27980469 1.63335937 -7.64945313 1.32140625 -7 1 C-4.53721199 -0.231394 -2.7204945 -0.07159196 0 0 Z " fill="#C9B08B" transform="translate(226,63)"/>
<path d="M0 0 C0.99 0 1.98 0 3 0 C3.38922918 1.28745036 3.76098036 2.58019597 4.125 3.875 C4.33382812 4.59429687 4.54265625 5.31359375 4.7578125 6.0546875 C4.83773437 6.69664063 4.91765625 7.33859375 5 8 C4.34 8.66 3.68 9.32 3 10 C2.39053267 12.52363913 2.39053267 12.52363913 2 15.375 C1.45612771 18.97815391 0.80801987 21.82089839 -1 25 C-1.99 24.67 -2.98 24.34 -4 24 C-3.34 24 -2.68 24 -2 24 C-2 20.37 -2 16.74 -2 13 C-2.66 12.67 -3.32 12.34 -4 12 C-3.67 11.67 -3.34 11.34 -3 11 C-3.66 10.34 -4.32 9.68 -5 9 C-4.195625 8.71125 -3.39125 8.4225 -2.5625 8.125 C0.1326468 7.26737432 0.1326468 7.26737432 1 5 C-2.3 5 -5.6 5 -9 5 C-9 4.67 -9 4.34 -9 4 C-5.7 3.34 -2.4 2.68 1 2 C0.67 1.34 0.34 0.68 0 0 Z " fill="#3D2423" transform="translate(203,37)"/>
<path d="M0 0 C0.33 0 0.66 0 1 0 C2.5091047 9.89301973 2.5091047 9.89301973 1 13 C-3.77552404 15.88158142 -8.54693238 16.34081673 -14 16 C-14 15.01 -14 14.02 -14 13 C-13.39671875 12.82984375 -12.7934375 12.6596875 -12.171875 12.484375 C-5.7064761 10.60298789 -5.7064761 10.60298789 -1 6 C-0.19684346 2.85518209 -0.19684346 2.85518209 0 0 Z " fill="#412926" transform="translate(182,73)"/>
<path d="M0 0 C0.92017937 10.83766816 0.92017937 10.83766816 -1.3359375 13.6875 C-3 14.75 -3 14.75 -6 16 C-6.34707004 10.21549928 -6.27233705 6.03436469 -3 1 C-1 0 -1 0 0 0 Z " fill="#F45273" transform="translate(189,64)"/>
<path d="M0 0 C-0.99 0.66 -1.98 1.32 -3 2 C-4.01868662 2.98095748 -5.02351983 3.97702078 -6 5 C-4.35 5 -2.7 5 -1 5 C-0.67 5.99 -0.34 6.98 0 8 C-2.31 8 -4.62 8 -7 8 C-7.33 7.01 -7.66 6.02 -8 5 C-9.95216435 6.95216435 -10.84826645 8.53199953 -12 11 C-11.76435605 6.91550495 -11.59037881 4.65785068 -8.8125 1.5625 C-5.58823227 -0.22875985 -3.63195497 -0.33785628 0 0 Z " fill="#CAB28C" transform="translate(197,77)"/>
<path d="M0 0 C-0.33 1.32 -0.66 2.64 -1 4 C-3 4 -5 4 -7 4 C-7 4.66 -7 5.32 -7 6 C-6.01 6.33 -5.02 6.66 -4 7 C-4.33 10.96 -4.66 14.92 -5 19 C-5.33 19 -5.66 19 -6 19 C-6.07347656 17.84371094 -6.07347656 17.84371094 -6.1484375 16.6640625 C-6.22320312 15.66117188 -6.29796875 14.65828125 -6.375 13.625 C-6.44460937 12.62726562 -6.51421875 11.62953125 -6.5859375 10.6015625 C-6.76363964 7.84491121 -6.76363964 7.84491121 -9 6 C-9 4.68 -9 3.36 -9 2 C-5.86501708 0.14223235 -3.62528568 -0.20140476 0 0 Z " fill="#3C3429" transform="translate(198,20)"/>
<path d="M0 0 C1 3 1 3 0.2578125 4.76171875 C-0.11601562 5.39722656 -0.48984375 6.03273438 -0.875 6.6875 C-3.11744863 10.85536142 -3.66439107 14.30147493 -4 19 C-4.33 19 -4.66 19 -5 19 C-5.19573608 17.56359829 -5.38127816 16.12580496 -5.5625 14.6875 C-5.66691406 13.88699219 -5.77132812 13.08648437 -5.87890625 12.26171875 C-6 10 -6 10 -5 7 C-5.66 6.67 -6.32 6.34 -7 6 C-6.401875 5.7525 -5.80375 5.505 -5.1875 5.25 C-2.71352479 3.83629988 -1.56629745 2.34944617 0 0 Z " fill="#261414" transform="translate(186,62)"/>
<path d="M0 0 C0.66 0 1.32 0 2 0 C1.34 1.32 0.68 2.64 0 4 C1.65 4 3.3 4 5 4 C2.94876752 6.05123248 1.72994937 6.64147118 -0.9375 7.625 C-1.62714844 7.88539062 -2.31679687 8.14578125 -3.02734375 8.4140625 C-5 9 -5 9 -8 9 C-8 7.02 -8 5.04 -8 3 C-5.525 3.495 -5.525 3.495 -3 4 C-2.54625 3.34 -2.0925 2.68 -1.625 2 C-1.08875 1.34 -0.5525 0.68 0 0 Z " fill="#DABF97" transform="translate(227,35)"/>
<path d="M0 0 C0.33 0 0.66 0 1 0 C1 1.98 1 3.96 1 6 C2.918125 5.690625 2.918125 5.690625 4.875 5.375 C7.0546875 5.0234375 7.0546875 5.0234375 9 5 C11 7 11 7 11 10 C9.35 10.33 7.7 10.66 6 11 C6 10.34 6 9.68 6 9 C4.02 8.34 2.04 7.68 0 7 C0 4.69 0 2.38 0 0 Z " fill="#383127" transform="translate(191,69)"/>
<path d="M0 0 C1.32 1.32 2.64 2.64 4 4 C2.02 4.99 2.02 4.99 0 6 C1.32 6.66 2.64 7.32 4 8 C2.27327966 8.36590746 0.54346345 8.71722195 -1.1875 9.0625 C-2.15042969 9.25972656 -3.11335937 9.45695312 -4.10546875 9.66015625 C-7.03610862 10.00423947 -9.16307068 9.74164697 -12 9 C-8.91821743 6.94547829 -6.24301008 6.04091515 -2.7421875 4.9765625 C-0.78681902 4.13224181 -0.78681902 4.13224181 -0.2578125 1.8984375 C-0.17273438 1.27195312 -0.08765625 0.64546875 0 0 Z " fill="#352621" transform="translate(183,86)"/>
<path d="M0 0 C1.59169495 3.1833899 0.22395135 6.14394055 -0.625 9.4375 C-0.77839844 10.11876953 -0.93179688 10.80003906 -1.08984375 11.50195312 C-2.00379283 15.06356385 -2.65964187 16.74648841 -5.6484375 18.97265625 C-6.81246094 19.48119141 -6.81246094 19.48119141 -8 20 C-6.59128327 15.68211942 -5.06140508 11.42904312 -3.4375 7.1875 C-3.00308594 6.04667969 -2.56867188 4.90585938 -2.12109375 3.73046875 C-1 1 -1 1 0 0 Z " fill="#BBA481" transform="translate(228,87)"/>
<path d="M0 0 C0.33 0 0.66 0 1 0 C1 3.96 1 7.92 1 12 C-0.32 12.33 -1.64 12.66 -3 13 C-3 12.34 -3 11.68 -3 11 C-5.64 11 -8.28 11 -11 11 C-11 10.67 -11 10.34 -11 10 C-8.03 10 -5.06 10 -2 10 C-2.04125 9.0925 -2.0825 8.185 -2.125 7.25 C-2.00468444 4.1217954 -1.6085292 2.61385994 0 0 Z " fill="#3E362B" transform="translate(273,81)"/>
<path d="M0 0 C1.62752231 0.25523874 3.25203196 0.52974494 4.875 0.8125 C6.23238281 1.03873047 6.23238281 1.03873047 7.6171875 1.26953125 C10 2 10 2 12 5 C2.58997722 4.03644647 2.58997722 4.03644647 -2 3 C-1.34 2.01 -0.68 1.02 0 0 Z " fill="#070404" transform="translate(184,90)"/>
<path d="M0 0 C0.66 0 1.32 0 2 0 C1.67 1.98 1.34 3.96 1 6 C0.01 6 -0.98 6 -2 6 C-3.66756036 7.30436727 -3.66756036 7.30436727 -5.1875 9 C-5.71730469 9.556875 -6.24710938 10.11375 -6.79296875 10.6875 C-7.19128906 11.120625 -7.58960938 11.55375 -8 12 C-8.66 11.67 -9.32 11.34 -10 11 C-8.38150935 9.16053461 -6.75581169 7.32848583 -5.125 5.5 C-4.66480469 4.97535156 -4.20460937 4.45070313 -3.73046875 3.91015625 C-2.52827924 2.56858245 -1.26754054 1.28000815 0 0 Z " fill="#D4BA93" transform="translate(179,69)"/>
<path d="M0 0 C0.99 0 1.98 0 3 0 C3 2.64 3 5.28 3 8 C1.35 8 -0.3 8 -2 8 C-2 6.68 -2 5.36 -2 4 C-1.34 4 -0.68 4 0 4 C0 2.68 0 1.36 0 0 Z " fill="#D5BB94" transform="translate(236,68)"/>
<path d="M0 0 C0 1.98 0 3.96 0 6 C-2.31 5.34 -4.62 4.68 -7 4 C-7 3.01 -7 2.02 -7 1 C-4.53721199 -0.231394 -2.7204945 -0.07159196 0 0 Z " fill="#E2C79D" transform="translate(226,63)"/>
<path d="M0 0 C0.99 0 1.98 0 3 0 C3.625 2.3125 3.625 2.3125 4 5 C3.01 6.485 3.01 6.485 2 8 C1.34 7.67 0.68 7.34 0 7 C0.33 6.34 0.66 5.68 1 5 C-2.3 5 -5.6 5 -9 5 C-9 4.67 -9 4.34 -9 4 C-5.7 3.34 -2.4 2.68 1 2 C0.67 1.34 0.34 0.68 0 0 Z " fill="#5C5140" transform="translate(203,37)"/>
<path d="M0 0 C0.33 0.66 0.66 1.32 1 2 C1.66 2.33 2.32 2.66 3 3 C0 5 0 5 -3.1875 4.625 C-4.115625 4.41875 -5.04375 4.2125 -6 4 C-6 3.01 -6 2.02 -6 1 C-4.02 0.67 -2.04 0.34 0 0 Z " fill="#241615" transform="translate(210,93)"/>
<path d="M0 0 C1.32 0.33 2.64 0.66 4 1 C3.34 3.64 2.68 6.28 2 9 C1.01 9 0.02 9 -1 9 C-2.21393603 5.3581919 -1.5159569 4.38860954 0 1 C0 0.67 0 0.34 0 0 Z " fill="#211212" transform="translate(223,88)"/>
<path d="M0 0 C0.66 0.33 1.32 0.66 2 1 C1.67 2.98 1.34 4.96 1 7 C2.98 6.34 4.96 5.68 7 5 C7.99 6.485 7.99 6.485 9 8 C6.03 8.66 3.06 9.32 0 10 C-0.95024979 6.30458414 -0.95024979 3.69541586 0 0 Z " fill="#402E28" transform="translate(218,37)"/>
<path d="M0 0 C-2.85478326 1.90318884 -4.41941308 2.4619099 -7.6875 3.125 C-8.49574219 3.29257812 -9.30398437 3.46015625 -10.13671875 3.6328125 C-10.75160156 3.75398438 -11.36648437 3.87515625 -12 4 C-8.4913862 -1.17938228 -5.96187138 -1.19237428 0 0 Z " fill="#0E0607" transform="translate(202,48)"/>
<path d="M0 0 C0.33 0 0.66 0 1 0 C1 1.65 1 3.3 1 5 C1.66 5 2.32 5 3 5 C3.33 4.01 3.66 3.02 4 2 C3.67 4.31 3.34 6.62 3 9 C1.68 9 0.36 9 -1 9 C-0.67 6.03 -0.34 3.06 0 0 Z " fill="#373026" transform="translate(228,124)"/>
<path d="M0 0 C0.66 0 1.32 0 2 0 C1.50168276 3.68754757 0.89932357 5.60490662 -2 8 C-2.99 7.67 -3.98 7.34 -5 7 C-4.21654285 5.82780457 -3.42297164 4.66236332 -2.625 3.5 C-2.18414062 2.8503125 -1.74328125 2.200625 -1.2890625 1.53125 C-0.65097656 0.77328125 -0.65097656 0.77328125 0 0 Z " fill="#251515" transform="translate(218,47)"/>
<path d="M0 0 C1.98 0.99 3.96 1.98 6 3 C5.01 3.33 4.02 3.66 3 4 C3 4.66 3 5.32 3 6 C1.68 6 0.36 6 -1 6 C-1.042721 4.33388095 -1.04063832 2.66617115 -1 1 C-0.67 0.67 -0.34 0.34 0 0 Z " fill="#71634F" transform="translate(243,70)"/>
<path d="M0 0 C0.33 0.66 0.66 1.32 1 2 C2.65 2 4.3 2 6 2 C6.33 2.99 6.66 3.98 7 5 C4.69 5 2.38 5 0 5 C0 3.35 0 1.7 0 0 Z " fill="#A28E70" transform="translate(190,80)"/>
<path d="M0 0 C0.33 0.66 0.66 1.32 1 2 C1.66 2 2.32 2 3 2 C1.73220443 4.53559113 0.08937386 6.10056922 -2 8 C-2.66 8 -3.32 8 -4 8 C-3.40072174 4.64404172 -2.15377564 2.62198774 0 0 Z " fill="#C4425C" transform="translate(185,59)"/>
<path d="M0 0 C4.38889325 0.66498383 7.9811485 2.18757677 12 4 C12 4.33 12 4.66 12 5 C7.25081338 4.53439347 3.89217595 3.83067342 0 1 C0 0.67 0 0.34 0 0 Z " fill="#9D8A6D" transform="translate(116,128)"/>
<path d="M0 0 C0.33 0.66 0.66 1.32 1 2 C1.66 2 2.32 2 3 2 C3 3.65 3 5.3 3 7 C1.68 7 0.36 7 -1 7 C-0.67 4.69 -0.34 2.38 0 0 Z " fill="#393227" transform="translate(220,126)"/>
<path d="M0 0 C1.65 0 3.3 0 5 0 C5 1.65 5 3.3 5 5 C3.35 4.67 1.7 4.34 0 4 C0 2.68 0 1.36 0 0 Z " fill="#B6A07E" transform="translate(231,88)"/>
<path d="M0 0 C-1.1875 2 -1.1875 2 -3 4 C-5.6875 4.25 -5.6875 4.25 -8 4 C-7.67 3.01 -7.34 2.02 -7 1 C-4.53721199 -0.231394 -2.7204945 -0.07159196 0 0 Z " fill="#0D0B09" transform="translate(199,78)"/>
<path d="M0 0 C0.33 0 0.66 0 1 0 C1.04898438 0.63808594 1.09796875 1.27617188 1.1484375 1.93359375 C1.22320312 2.75988281 1.29796875 3.58617188 1.375 4.4375 C1.44460937 5.26121094 1.51421875 6.08492188 1.5859375 6.93359375 C1.72257813 7.61550781 1.85921875 8.29742187 2 9 C2.66 9.33 3.32 9.66 4 10 C3.67 10.99 3.34 11.98 3 13 C0.9375 11.5625 0.9375 11.5625 -1 9 C-1.05823431 5.92416977 -0.59222907 3.01264352 0 0 Z " fill="#421E21" transform="translate(228,63)"/>
<path d="M0 0 C1.2065625 0.0309375 1.2065625 0.0309375 2.4375 0.0625 C2.1075 2.7025 1.7775 5.3425 1.4375 8.0625 C1.1075 8.0625 0.7775 8.0625 0.4375 8.0625 C0.334375 7.27875 0.23125 6.495 0.125 5.6875 C-0.33845022 2.73204819 -0.33845022 2.73204819 -3.5625 1.0625 C-2.5625 0.0625 -2.5625 0.0625 0 0 Z " fill="#020101" transform="translate(226.5625,59.9375)"/>
<path d="M0 0 C0.33 0 0.66 0 1 0 C1 2.64 1 5.28 1 8 C1.99 8.33 2.98 8.66 4 9 C2.02 9.33 0.04 9.66 -2 10 C-1.34 6.7 -0.68 3.4 0 0 Z " fill="#0A0605" transform="translate(190,68)"/>
<path d="M0 0 C2.05078125 0.03255208 4.1015625 0.06510417 6.15234375 0.09765625 C6.15234375 0.42765625 6.15234375 0.75765625 6.15234375 1.09765625 C4.50234375 1.42765625 2.85234375 1.75765625 1.15234375 2.09765625 C1.81234375 2.75765625 2.47234375 3.41765625 3.15234375 4.09765625 C1.83234375 4.09765625 0.51234375 4.09765625 -0.84765625 4.09765625 C-0.84765625 3.43765625 -0.84765625 2.77765625 -0.84765625 2.09765625 C-1.50765625 1.76765625 -2.16765625 1.43765625 -2.84765625 1.09765625 C-1.84765625 0.09765625 -1.84765625 0.09765625 0 0 Z " fill="#3C1B1F" transform="translate(222.84765625,58.90234375)"/>
</svg>
